<?xml version="1.0" standalone="no"?>
<!DOCTYPE svg PUBLIC "-//W3C//DTD SVG 20010904//EN"
 "http://www.w3.org/TR/2001/REC-SVG-20010904/DTD/svg10.dtd">
<svg version="1.0" xmlns="http://www.w3.org/2000/svg"
 width="1280.000000pt" height="1028.000000pt" viewBox="0 0 1280.000000 1028.000000"
 preserveAspectRatio="xMidYMid meet">
<metadata>
Created by potrace 1.15, written by Peter Selinger 2001-2017
</metadata>
<g transform="translate(0.000000,1028.000000) scale(0.100000,-0.100000)"
fill="#ffffff" stroke="none">
<path d="M6413 10269 c-66 -19 -45 -29 64 -29 72 0 117 -5 134 -14 23 -12 29
-12 42 1 11 12 19 13 36 4 15 -9 25 -8 41 1 15 10 22 10 32 0 6 -6 23 -12 36
-12 14 0 38 -14 58 -34 l34 -34 0 29 0 28 60 -3 c34 -2 78 -13 102 -25 39 -19
43 -19 60 -4 18 16 22 14 71 -35 58 -57 79 -68 46 -23 -21 28 -19 51 3 51 6 0
16 -8 23 -17 12 -16 16 -16 40 -3 24 13 28 13 36 -3 12 -21 45 -22 52 -3 11
27 -23 39 -161 57 -75 9 -166 24 -202 33 -58 13 -470 48 -545 45 -16 0 -44 -5
-62 -10z"/>
<path d="M5780 10244 c-151 -10 -241 -21 -340 -43 -74 -17 -153 -33 -174 -36
-47 -8 -261 -117 -296 -151 -31 -31 -145 -115 -185 -138 -17 -9 -61 -43 -100
-76 -38 -33 -106 -85 -150 -117 -64 -45 -261 -227 -345 -318 -8 -9 -51 -54
-95 -99 -192 -200 -367 -456 -424 -622 -11 -32 -32 -90 -47 -129 -14 -38 -30
-87 -35 -109 -5 -21 -14 -46 -19 -56 -5 -9 -16 -61 -25 -116 -8 -54 -22 -130
-29 -169 -65 -319 -71 -358 -68 -500 1 -77 9 -230 17 -340 9 -110 20 -313 25
-451 11 -274 27 -369 106 -616 19 -59 34 -119 34 -133 0 -14 9 -51 20 -82 25
-71 25 -79 0 -86 -16 -4 -19 -11 -14 -36 4 -17 2 -37 -4 -43 -27 -33 -69 -190
-89 -333 -3 -22 -12 -49 -19 -60 -34 -48 -1 -163 71 -251 19 -23 67 -75 107
-116 94 -95 188 -242 200 -312 5 -28 13 -55 18 -60 12 -12 27 21 35 79 l8 50
-25 -23 -25 -22 5 54 c4 46 2 55 -14 60 -29 10 -65 74 -75 134 -11 69 -16 74
-25 26 l-7 -38 -18 23 c-12 15 -19 39 -19 67 0 51 -11 57 -27 13 -14 -35 -29
-32 -38 10 -4 19 -12 28 -23 27 -14 -1 -18 9 -20 52 -3 51 -22 75 -22 27 0
-14 -4 -25 -9 -25 -14 0 -31 59 -31 108 0 44 0 45 -20 27 -20 -18 -20 -17 -20
34 0 77 47 151 87 138 154 -51 179 -64 237 -120 61 -59 102 -80 116 -57 4 7
13 40 20 73 6 32 25 103 41 156 44 138 56 214 68 411 14 213 37 383 58 423 10
19 13 44 10 69 -4 32 -2 38 14 38 40 0 121 163 144 290 21 116 15 212 -20 304
-13 36 -43 134 -65 218 -22 84 -48 171 -57 193 -11 29 -17 87 -21 213 -2 95
-6 171 -9 169 -2 -2 -8 -55 -14 -118 -10 -117 -21 -152 -33 -102 -4 15 -21 47
-37 70 -16 24 -29 48 -28 55 1 7 1 18 0 24 -1 14 -76 39 -90 30 -22 -14 -10
-35 27 -47 44 -14 57 -30 38 -45 -12 -9 -12 -16 4 -52 11 -23 24 -42 30 -42 5
0 10 -8 10 -19 0 -10 14 -36 31 -57 46 -57 79 -127 90 -192 6 -31 28 -113 50
-181 22 -68 44 -161 50 -207 5 -46 14 -94 20 -107 9 -19 7 -31 -5 -56 -9 -17
-23 -31 -31 -31 -13 0 -14 -12 -9 -67 5 -61 3 -73 -20 -115 -15 -25 -33 -49
-41 -52 -8 -3 -15 -12 -15 -20 0 -9 -9 -20 -19 -25 -14 -8 -21 -27 -26 -73 -4
-35 -10 -67 -14 -73 -15 -25 -31 -84 -31 -120 0 -37 -1 -38 -17 -22 -25 25
-31 141 -8 167 22 25 27 115 5 115 -9 0 -17 -12 -20 -30 -3 -16 -14 -48 -25
-70 -26 -54 -27 -161 -2 -195 10 -14 29 -41 43 -60 17 -23 23 -41 18 -55 -9
-27 -26 -189 -25 -245 0 -24 -6 -54 -14 -66 -9 -13 -12 -35 -9 -55 4 -23 -3
-57 -20 -102 -14 -37 -26 -82 -26 -100 0 -18 -9 -51 -20 -72 -13 -25 -19 -50
-16 -67 8 -41 -11 -43 -36 -3 -16 24 -35 38 -61 45 -51 14 -67 45 -78 142 -23
203 -63 365 -180 734 -10 33 -19 80 -19 104 0 24 -9 62 -20 84 -40 85 -62 392
-25 354 3 -2 6 -44 9 -92 5 -131 16 -116 16 22 0 111 -2 122 -18 122 -10 0
-23 5 -30 12 -15 15 -16 138 -2 138 6 0 10 -12 11 -27 0 -16 4 -37 8 -47 7
-18 8 -18 14 -2 9 23 27 11 27 -18 0 -13 7 -29 15 -36 21 -17 31 13 16 46 -6
14 -11 60 -11 104 0 93 -15 114 -25 35 -6 -51 -25 -69 -25 -24 0 10 -4 19 -10
19 -5 0 -10 -4 -10 -10 0 -5 -4 -10 -10 -10 -5 0 -10 16 -10 35 0 39 6 43 26
18 12 -16 13 -11 14 37 0 69 -13 117 -40 142 -12 12 -20 32 -20 53 l0 34 49
-2 c57 -3 85 -23 101 -73 13 -39 41 -45 72 -17 25 22 45 10 75 -43 14 -26 33
-43 55 -50 19 -7 34 -19 36 -30 8 -54 15 -65 50 -83 20 -10 47 -30 59 -43 22
-23 24 -53 8 -143 -6 -34 7 -61 25 -50 8 5 10 21 5 51 -5 35 -2 47 14 63 25
25 41 27 41 6 0 -8 5 -15 10 -15 6 0 10 -6 10 -12 0 -14 39 -68 40 -55 0 4 -9
25 -20 47 -11 22 -20 49 -20 60 0 32 -19 61 -38 59 -33 -3 -42 1 -84 39 -22
20 -52 61 -64 90 -13 28 -30 52 -38 52 -12 0 -27 15 -96 98 -18 22 -21 22 -56
7 -49 -20 -52 -20 -68 18 -19 47 -63 79 -97 72 -29 -7 -59 15 -59 43 0 9 7 54
15 99 8 46 11 105 8 133 -7 63 10 110 42 110 26 0 35 17 35 66 0 42 -16 45
-25 3 -11 -50 -30 -27 -37 47 -5 50 -3 75 6 89 7 11 16 40 19 65 21 156 29
200 42 246 13 46 39 84 50 73 2 -3 -7 -58 -21 -124 -36 -168 -38 -182 -24
-190 6 -4 14 -5 16 -2 3 3 14 64 24 137 20 134 36 237 45 278 10 43 25 22 25
-35 1 -53 2 -56 15 -39 8 11 15 36 15 56 0 20 7 45 15 56 8 10 15 37 15 58 0
22 5 54 12 73 15 41 7 49 -26 27 -15 -9 -30 -14 -33 -10 -11 11 12 41 35 44
28 4 37 18 57 87 9 33 24 68 33 78 10 10 28 46 42 80 21 53 29 62 53 65 21 3
31 12 42 39 20 48 82 122 111 133 13 5 30 23 39 39 8 17 24 35 36 41 11 6 24
22 29 36 6 14 22 29 38 35 17 6 41 31 64 68 24 39 45 61 59 63 13 2 30 16 38
32 18 32 34 36 39 9 8 -37 20 -33 31 11 7 28 21 52 38 65 61 46 86 67 121 102
20 20 49 39 63 42 14 4 32 18 39 33 8 14 27 32 42 40 15 8 53 36 85 62 32 27
86 63 121 82 35 18 76 48 90 65 15 18 41 35 57 39 17 4 37 13 45 21 15 12 46
20 122 32 34 5 39 3 49 -23 l11 -29 13 25 c19 36 86 71 149 77 48 5 55 3 66
-16 l11 -22 19 23 c14 18 36 25 111 37 90 13 133 17 299 27 41 2 103 7 136 10
41 4 64 3 68 -5 11 -17 58 -13 86 9 l25 20 -185 -1 c-102 -1 -277 -8 -390 -15z
m-2032 -4517 c8 -24 12 -80 10 -132 l-3 -90 -36 -3 c-31 -3 -39 1 -62 36 -44
62 -31 151 29 207 37 35 48 32 62 -18z"/>
<path d="M7422 10150 c1 -13 10 -26 18 -30 8 -4 30 -14 48 -23 19 -9 43 -17
53 -17 34 0 57 -19 94 -75 19 -30 37 -55 40 -55 15 0 2 42 -21 70 -19 21 -24
34 -16 42 7 7 20 -1 43 -26 33 -36 51 -46 47 -24 -2 6 4 13 13 15 10 3 37 -26
77 -83 41 -58 62 -80 62 -66 0 12 -4 24 -10 27 -12 7 -13 45 -2 45 5 0 19 -11
32 -25 13 -14 34 -25 46 -25 25 0 44 -23 89 -107 33 -61 50 -69 41 -18 -4 19
-5 35 -2 35 2 0 33 -28 69 -62 51 -50 69 -76 87 -125 22 -60 40 -81 40 -47 0
9 7 14 16 12 20 -4 63 -139 89 -278 10 -52 21 -104 25 -115 18 -48 30 -96 46
-177 18 -93 34 -115 34 -48 0 22 5 40 10 40 6 0 10 -11 10 -24 0 -14 5 -28 11
-32 12 -7 11 4 -8 159 -4 32 -2 47 6 47 6 0 11 -11 11 -24 0 -14 5 -37 11 -53
19 -50 59 -252 59 -297 0 -25 5 -48 10 -51 13 -8 13 -72 1 -80 -5 -3 -15 19
-21 50 -14 67 -30 81 -30 25 0 -25 -8 -51 -20 -68 -26 -35 -18 -64 15 -56 17
4 26 0 35 -15 12 -24 6 -41 -15 -41 -7 0 -17 -9 -20 -20 -3 -11 -11 -20 -16
-20 -5 0 -9 9 -9 20 0 11 -4 20 -10 20 -5 0 -10 -15 -10 -34 0 -19 5 -38 10
-41 6 -3 10 -1 10 4 0 18 27 12 35 -6 10 -25 26 -94 26 -116 0 -10 9 -23 20
-30 15 -9 19 -23 19 -69 0 -31 4 -68 10 -83 5 -14 13 -74 16 -134 6 -89 4
-118 -11 -165 -13 -41 -16 -72 -11 -117 4 -46 3 -60 -7 -57 -6 3 -14 19 -17
37 -8 49 -25 37 -28 -20 -2 -33 2 -59 12 -74 14 -22 14 -25 0 -39 -8 -9 -19
-16 -24 -16 -12 0 -23 142 -15 195 5 38 9 45 24 40 14 -4 20 1 24 22 7 35 -2
85 -14 77 -5 -3 -9 -14 -9 -25 0 -36 -18 -19 -25 24 -4 23 -14 54 -21 69 -8
15 -14 43 -14 63 0 24 -7 41 -21 53 -42 34 -48 43 -54 80 -3 20 -17 66 -30
102 -29 80 -52 172 -68 269 -12 72 -18 82 -59 95 -10 3 -18 12 -18 21 0 23
-60 175 -69 175 -11 0 6 -93 26 -145 35 -93 56 -202 36 -181 -23 23 -103 285
-103 337 0 16 -9 55 -19 87 -10 31 -22 72 -26 91 -6 29 -9 31 -17 17 -6 -11
-4 -37 6 -80 9 -34 16 -75 16 -92 1 -29 38 -178 57 -224 6 -14 14 -45 18 -70
4 -25 19 -76 33 -113 25 -68 23 -99 -4 -63 -7 11 -16 36 -19 55 -4 20 -10 44
-16 53 -5 10 -9 27 -9 37 0 11 -13 57 -30 103 -16 46 -50 172 -74 282 -49 220
-73 274 -62 141 4 -44 13 -109 22 -145 24 -109 27 -130 17 -130 -16 0 -34 50
-49 134 -7 43 -16 81 -19 84 -21 21 16 -209 43 -268 14 -31 16 -33 20 -12 5
33 15 27 37 -26 13 -33 18 -65 17 -107 -2 -40 2 -71 12 -90 9 -17 16 -55 16
-89 0 -39 5 -65 15 -76 14 -16 14 -20 -2 -48 -16 -27 -16 -36 -4 -89 21 -92
24 -123 12 -123 -19 0 -65 189 -77 319 -6 62 -9 71 -17 50 -12 -31 -1 -435 15
-514 14 -75 16 -169 3 -173 -6 -1 -11 26 -13 63 -3 62 -15 85 -26 48 -3 -10
-10 -59 -15 -109 -15 -123 -32 -176 -87 -264 -63 -102 -87 -156 -78 -182 l6
-21 13 23 c11 21 13 17 19 -40 4 -34 10 -59 14 -55 4 3 12 32 18 63 7 35 26
78 49 112 47 69 145 267 145 292 0 11 5 16 10 13 15 -9 12 -57 -6 -100 -21
-52 -12 -66 15 -21 13 20 25 35 27 33 12 -11 -42 -128 -113 -245 -24 -40 -42
-78 -40 -85 3 -7 8 -3 13 10 11 28 115 153 127 153 5 0 7 -7 3 -15 -8 -22
-104 -163 -116 -170 -12 -7 -14 -75 -2 -75 4 0 12 10 17 22 6 12 17 24 25 26
11 4 10 -1 -4 -23 -41 -63 -58 -274 -31 -400 18 -86 19 -108 3 -103 -25 8 -36
75 -43 258 -7 189 -21 276 -51 300 -13 12 -15 10 -10 -11 22 -98 56 -523 42
-536 -6 -7 -26 66 -26 100 0 34 -17 35 -30 1 -29 -76 26 -190 112 -231 54 -26
135 -104 140 -135 2 -12 9 -23 16 -26 14 -4 8 87 -10 146 -11 36 -3 56 12 32
19 -30 52 -126 66 -194 18 -84 9 -100 -36 -62 -17 14 -37 26 -44 26 -7 0 -40
13 -72 30 -111 56 -342 86 -595 77 l-156 -6 -34 36 c-22 23 -30 37 -21 40 20
8 14 33 -18 70 -16 18 -30 42 -30 53 0 10 -5 22 -10 25 -6 4 -22 29 -35 56
-14 27 -30 49 -36 49 -13 0 -4 -29 27 -92 28 -55 33 -98 10 -78 -8 6 -20 27
-26 46 -11 32 -40 48 -40 22 0 -6 -13 1 -30 17 -33 32 -39 21 -14 -26 15 -31
12 -65 -5 -55 -5 4 -17 29 -26 56 -20 60 -41 80 -31 29 3 -19 9 -52 12 -74 l5
-40 -20 24 c-12 13 -21 31 -21 42 0 30 -20 33 -21 2 -1 -35 -14 -70 -21 -57
-3 5 -8 26 -12 46 -7 37 -21 56 -34 44 -3 -4 0 -22 7 -41 20 -57 17 -117 -8
-133 -11 -8 -21 -21 -21 -29 0 -8 -5 -24 -11 -35 -16 -30 -29 -5 -29 58 0 57
-25 149 -48 177 -9 9 -17 16 -19 14 -2 -2 9 -43 24 -91 24 -77 25 -91 14 -119
-7 -18 -16 -95 -20 -172 -8 -138 -21 -190 -44 -182 -9 3 -12 53 -12 178 0 100
-5 191 -12 214 -6 22 -14 52 -17 68 -4 15 -11 27 -16 27 -15 0 -12 -53 6 -95
13 -32 14 -56 7 -150 -9 -106 -11 -114 -43 -154 -29 -36 -34 -51 -36 -99 -1
-31 -14 -93 -28 -137 -14 -44 -26 -93 -26 -108 0 -39 -24 -30 -28 11 -4 37
-84 132 -112 132 -31 0 -42 27 -54 133 -6 56 -15 108 -19 115 -20 31 -26 5
-20 -87 6 -100 0 -151 -17 -151 -6 0 -10 20 -10 45 0 25 -4 45 -9 45 -9 0 -21
-48 -21 -86 0 -17 -8 -27 -24 -34 -24 -9 -68 -60 -79 -92 -7 -21 -22 -23 -34
-5 -5 8 -10 0 -13 -22 -4 -29 -11 -35 -47 -47 -32 -11 -48 -12 -63 -4 -17 9
-20 8 -20 -7 0 -10 -8 -30 -17 -43 l-18 -25 -6 40 c-13 80 -31 160 -41 178 -5
10 -13 84 -18 165 -16 259 -21 278 -84 326 -20 14 -49 46 -66 70 -29 44 -113
96 -151 96 -10 0 -31 12 -46 26 -24 22 -34 25 -67 20 -46 -8 -157 -67 -153
-81 2 -5 13 -11 24 -13 27 -4 76 -49 70 -65 -2 -8 -18 -10 -48 -7 -107 12
-435 4 -521 -13 -126 -25 -326 -98 -377 -138 -13 -11 -37 -19 -53 -19 -56 0
-89 -33 -48 -48 21 -8 20 -8 -4 -37 -15 -17 -31 -55 -39 -90 -13 -59 -14 -60
-53 -67 -45 -8 -126 -48 -132 -66 -7 -23 31 -25 84 -3 29 13 57 20 63 17 5 -3
14 -45 21 -93 7 -49 23 -140 36 -203 13 -63 31 -191 39 -284 18 -199 20 -208
51 -263 59 -103 168 -150 412 -177 79 -9 162 -25 197 -37 35 -13 94 -24 142
-27 136 -8 250 38 367 147 78 74 183 151 286 211 141 83 155 110 166 321 l7
127 40 6 c22 4 46 14 53 23 10 14 16 15 38 5 l26 -11 -7 -126 c-4 -89 -3 -125
5 -125 30 0 48 93 28 141 -20 49 2 158 41 202 9 9 21 27 27 39 6 12 25 30 41
39 17 10 37 23 46 28 13 8 18 6 22 -8 2 -10 21 -27 41 -36 57 -27 74 -66 71
-160 -2 -60 2 -92 16 -129 21 -52 19 -67 -6 -46 -29 24 -30 -1 -2 -79 15 -42
27 -89 27 -105 0 -15 13 -64 29 -109 16 -45 34 -116 41 -157 7 -42 25 -97 40
-125 44 -79 82 -215 60 -215 -6 0 -13 8 -16 18 -9 28 -75 164 -104 212 -15 25
-35 68 -44 95 -9 28 -39 78 -66 113 -46 56 -55 62 -88 62 -54 0 -109 -41 -138
-103 -13 -29 -24 -64 -24 -78 0 -15 -9 -38 -20 -52 -11 -14 -20 -29 -20 -35 0
-5 -9 -17 -20 -27 -11 -10 -40 -54 -63 -97 -23 -43 -48 -78 -54 -78 -17 0 -16
15 2 67 8 23 20 75 26 115 13 81 28 113 59 123 11 3 23 18 26 33 3 15 8 36 11
47 5 19 4 19 -19 -2 -13 -13 -27 -23 -31 -23 -12 0 -8 36 8 73 8 20 15 48 15
61 0 18 4 24 15 20 9 -4 15 0 15 9 0 8 7 20 15 27 8 7 15 22 15 34 0 11 9 32
20 46 11 14 20 34 20 44 0 16 -6 13 -34 -17 -18 -20 -41 -37 -49 -37 -10 0
-24 -27 -41 -81 -14 -44 -26 -86 -26 -93 0 -8 -7 -19 -15 -26 -9 -8 -15 -30
-15 -59 0 -25 -7 -67 -14 -92 -8 -26 -19 -89 -26 -141 -6 -52 -17 -119 -25
-148 -8 -30 -12 -56 -10 -59 3 -2 14 4 26 15 l20 18 -6 -49 c-3 -28 -10 -99
-15 -160 -7 -89 -16 -127 -45 -198 -41 -100 -75 -159 -105 -180 -19 -13 -20
-21 -15 -98 8 -100 36 -187 74 -223 62 -60 223 -86 288 -47 35 22 89 95 105
144 6 17 15 37 20 43 4 6 11 92 14 190 5 181 16 235 28 147 3 -26 13 -86 22
-133 16 -84 16 -87 -5 -127 -25 -50 -28 -121 -6 -163 34 -66 112 -100 233
-100 72 0 72 0 110 41 70 76 82 109 82 226 0 57 4 103 9 103 20 0 33 -116 29
-254 -4 -142 -17 -201 -40 -178 -8 8 -17 8 -32 -1 -20 -11 -209 -17 -266 -8
-14 2 -33 0 -42 -4 -13 -5 -18 -3 -18 8 0 8 -13 20 -29 25 -16 6 -37 22 -46
36 -24 36 -44 33 -93 -17 -42 -43 -43 -44 -33 -88 6 -24 11 -75 11 -114 1 -38
6 -90 11 -115 6 -25 12 -92 14 -149 4 -120 10 -184 31 -297 12 -67 12 -89 2
-120 -13 -37 -14 -38 -88 -52 -81 -14 -104 -27 -80 -43 13 -8 61 -8 139 3 22
3 26 -2 33 -37 5 -22 8 -89 6 -148 -4 -133 -10 -142 -103 -132 -82 9 -123 23
-130 45 -3 10 -1 39 6 64 8 33 8 54 1 74 -6 15 -13 56 -16 92 -6 76 -20 128
-40 155 -15 20 -15 20 -30 0 -12 -17 -24 -20 -77 -17 -35 1 -68 7 -73 12 -14
14 21 381 41 428 17 41 42 169 43 220 0 27 -4 32 -24 32 -22 0 -23 -4 -30 -97
-4 -54 -15 -136 -26 -183 -10 -47 -21 -116 -24 -154 -6 -72 -18 -98 -42 -89
-19 7 -18 -11 1 -27 27 -22 16 -44 -33 -68 -68 -33 -168 -30 -242 6 l-55 27
-3 52 c-2 32 3 66 13 90 29 66 54 147 55 172 0 13 16 58 35 101 36 80 65 198
86 350 15 107 9 141 -14 88 -10 -21 -17 -50 -17 -66 0 -44 -28 -195 -46 -249
-9 -26 -30 -79 -49 -118 -18 -38 -37 -97 -43 -130 -15 -90 -43 -197 -59 -228
-10 -20 -21 -28 -36 -26 -12 1 -34 -1 -50 -6 -49 -13 -117 55 -117 118 0 24
-3 27 -20 22 -15 -5 -20 -2 -20 12 0 11 6 25 13 31 16 17 23 336 8 417 -13 70
-59 171 -101 225 -41 51 -137 115 -203 134 -28 8 -102 19 -164 25 -121 11
-193 36 -219 77 -22 33 -64 154 -63 184 0 25 0 25 29 -9 18 -22 34 -32 44 -28
21 8 20 31 -1 48 -9 8 -31 47 -50 88 -19 40 -37 71 -40 67 -4 -3 -5 -31 -4
-61 2 -42 -2 -57 -13 -61 -9 -3 -16 -11 -16 -17 0 -6 -7 -19 -17 -29 -9 -10
-11 -18 -5 -18 19 0 45 -59 32 -75 -8 -9 -7 -20 2 -40 11 -24 9 -28 -18 -50
-36 -30 -84 -32 -142 -5 -63 29 -110 68 -139 117 -14 24 -34 48 -45 54 -19 10
-20 17 -14 79 5 44 3 70 -3 75 -6 3 -11 -2 -11 -12 0 -19 -18 -43 -31 -43 -16
0 -20 41 -8 80 14 47 7 60 -19 37 -10 -10 -22 -17 -25 -17 -11 0 -8 49 4 72
14 25 4 35 -17 17 -26 -21 -32 -51 -19 -84 51 -121 87 -226 82 -239 -6 -15
-10 -15 -39 -2 -18 8 -58 24 -88 37 -30 12 -116 47 -190 77 -74 31 -250 113
-389 184 -140 70 -262 128 -270 128 -9 0 -50 21 -91 45 -41 25 -79 45 -86 45
-17 0 -90 82 -112 127 -11 21 -22 55 -26 77 -15 80 -157 185 -291 215 -27 6
-84 16 -125 22 -69 11 -78 15 -115 54 -22 24 -56 51 -75 60 -19 10 -73 44
-120 75 -148 100 -182 114 -280 114 -66 0 -96 -5 -132 -22 -26 -12 -61 -22
-78 -22 -25 0 -34 -6 -46 -32 -8 -18 -19 -40 -26 -49 -6 -9 -9 -23 -5 -32 7
-19 180 -107 211 -107 66 -1 57 -41 -16 -73 -29 -13 -94 -56 -143 -96 -50 -40
-133 -101 -185 -136 -84 -55 -104 -64 -170 -75 -83 -13 -184 -42 -244 -71 -48
-23 -58 -18 -110 57 -52 73 -104 101 -204 110 l-73 7 -99 -67 c-54 -37 -107
-80 -117 -95 -10 -16 -47 -71 -82 -123 -80 -116 -143 -246 -175 -363 -13 -50
-29 -103 -35 -118 -30 -75 7 -392 56 -492 57 -114 240 -322 307 -350 18 -8 71
-20 118 -29 74 -12 95 -13 150 -1 72 15 171 54 228 90 139 88 215 350 144 494
l-27 53 20 42 c47 96 195 240 297 290 28 14 78 33 111 42 56 16 69 16 225 1
179 -18 284 -38 370 -68 30 -11 87 -29 125 -40 39 -12 117 -47 175 -79 58 -32
130 -68 160 -80 30 -12 87 -37 125 -55 39 -19 113 -46 165 -60 52 -14 124 -37
160 -50 36 -14 151 -56 255 -94 241 -88 364 -137 490 -195 55 -25 105 -46 111
-46 20 0 139 -51 184 -80 25 -15 66 -30 91 -33 26 -4 73 -18 105 -33 33 -14
140 -54 239 -89 100 -34 223 -81 275 -103 52 -23 143 -59 201 -82 146 -56 145
-54 141 -137 -5 -113 -8 -121 -60 -144 -26 -11 -55 -25 -64 -30 -44 -22 -59
-30 -156 -73 -56 -25 -108 -46 -115 -46 -17 0 -127 -69 -127 -80 0 -12 19 -4
115 46 44 24 132 64 195 89 63 25 135 57 159 71 55 31 96 33 88 4 -4 -17 0
-20 28 -20 65 0 54 -38 -16 -59 -53 -16 -39 -35 14 -20 31 8 45 7 75 -8 35
-17 40 -26 59 -92 4 -16 79 -9 116 11 22 11 22 12 -8 24 -16 7 -42 13 -56 14
-33 0 -42 11 -65 77 -16 45 -17 57 -5 88 16 46 27 145 15 145 -5 0 -18 -33
-29 -72 -23 -82 -46 -98 -84 -57 -37 40 -55 202 -30 279 6 19 14 55 18 80 l7
45 32 -34 c18 -19 37 -53 43 -77 9 -33 24 -56 61 -89 28 -25 60 -47 72 -49
114 -21 113 -20 115 -143 1 -40 5 -73 10 -73 5 0 15 35 23 78 15 89 13 88 118
50 l65 -24 8 -59 c9 -69 9 -181 0 -210 -3 -11 -11 -23 -17 -27 -14 -9 -74 -10
-145 -1 l-53 6 6 74 c6 61 4 73 -8 73 -15 0 -36 -55 -36 -96 0 -12 -9 -33 -20
-47 -26 -33 -25 -37 8 -37 40 0 46 -10 20 -37 -12 -12 -19 -25 -17 -28 3 -2
34 4 70 15 108 33 150 20 51 -16 -104 -38 -298 -117 -343 -140 -27 -13 -55
-24 -63 -24 -8 0 -31 -11 -51 -24 -20 -14 -57 -32 -83 -42 -131 -47 -517 -218
-572 -253 -8 -5 -55 -22 -105 -37 -49 -15 -115 -40 -145 -54 -30 -15 -68 -30
-83 -34 -44 -10 -203 -88 -191 -92 16 -7 418 145 459 173 11 7 29 13 42 13 12
0 24 4 27 9 3 4 20 11 38 15 18 4 119 45 223 92 105 48 233 106 285 129 265
120 544 235 572 235 40 0 -75 -64 -257 -143 -55 -24 -140 -61 -190 -82 -49
-21 -199 -87 -332 -147 -133 -59 -244 -108 -247 -108 -7 0 -212 -82 -361 -145
-60 -25 -191 -77 -290 -116 -234 -91 -238 -92 -458 -193 -212 -97 -649 -318
-747 -379 -121 -74 -257 -166 -321 -218 -67 -53 -117 -84 -126 -76 -6 6 61 57
75 57 6 0 22 16 35 35 23 33 82 83 214 181 66 48 263 158 373 209 36 16 72 34
80 41 8 6 26 15 39 19 33 10 403 193 415 205 22 22 -32 8 -99 -25 -38 -19
-117 -55 -175 -81 -449 -200 -641 -315 -866 -517 -127 -114 -134 -122 -128
-151 5 -28 -2 -39 -70 -111 -41 -44 -75 -75 -76 -69 0 15 81 124 92 124 4 0 8
7 8 15 0 36 -37 8 -120 -92 -84 -100 -252 -275 -292 -304 -16 -12 -29 -15 -33
-9 -3 5 49 67 117 138 68 70 155 163 193 207 39 44 110 124 159 178 49 53 86
100 83 103 -3 4 -132 -121 -286 -277 -210 -213 -283 -281 -291 -273 -18 18 0
42 90 119 89 75 269 275 248 275 -7 0 -67 -56 -135 -124 -116 -119 -195 -178
-208 -156 -3 6 -3 15 0 20 4 6 8 29 10 53 2 23 7 59 11 81 3 21 3 80 -1 131
-7 93 -7 93 -38 106 -59 25 -105 76 -113 125 -9 61 1 94 29 94 12 0 68 11 125
25 113 27 136 30 127 15 -3 -5 -15 -10 -26 -10 -10 0 -19 -4 -19 -9 0 -10 -35
-25 -115 -47 -69 -19 -87 -31 -59 -39 10 -4 27 -11 36 -16 40 -21 193 1 261
38 l32 18 -45 5 c-44 6 -44 6 -15 14 17 4 87 28 156 52 70 24 131 44 137 44
14 0 34 27 24 34 -4 2 -32 -2 -60 -10 -74 -22 -98 -14 -45 14 23 12 48 22 55
22 7 0 25 6 39 13 14 8 44 17 67 21 24 3 59 15 80 26 20 11 44 20 52 20 20 0
138 46 340 132 91 39 215 91 275 115 127 52 152 69 85 59 -25 -4 -112 -37
-195 -73 -82 -36 -198 -83 -256 -104 -58 -20 -144 -53 -190 -72 -46 -19 -136
-51 -199 -72 -63 -21 -135 -48 -160 -60 -71 -36 -214 -68 -267 -60 -32 5 -75
0 -146 -16 -98 -22 -100 -22 -114 -3 -22 30 -12 57 24 66 50 13 39 25 -20 24
-57 0 -120 20 -114 38 2 6 10 12 18 13 60 8 89 15 89 23 0 14 -74 12 -120 -1
-34 -10 -43 -9 -91 17 -57 31 -73 60 -45 83 9 8 64 17 130 22 63 4 170 18 237
29 68 12 170 25 228 30 108 10 198 27 216 42 5 4 19 8 31 8 12 0 41 7 65 16
24 8 125 37 224 64 237 64 377 111 615 208 41 17 163 61 270 97 312 108 608
228 624 254 10 15 -109 -26 -342 -118 -108 -43 -159 -53 -132 -27 15 15 147
72 290 125 101 38 479 206 510 226 31 21 202 109 360 186 91 44 206 100 255
124 50 25 102 47 118 51 39 9 44 24 8 24 -16 0 -32 -4 -35 -9 -3 -5 -18 -12
-33 -15 -33 -8 -156 -59 -303 -127 -58 -27 -116 -49 -128 -49 -13 0 -37 -15
-55 -33 -18 -19 -62 -46 -102 -62 -87 -35 -185 -83 -205 -100 -17 -14 -179
-80 -223 -91 -15 -3 -30 -10 -33 -15 -3 -5 -14 -9 -25 -9 -19 0 -200 -77 -249
-106 -43 -26 -111 -55 -220 -94 -58 -21 -145 -54 -195 -74 -98 -40 -158 -63
-250 -94 -126 -43 -161 -56 -195 -73 -19 -9 -99 -29 -178 -42 -79 -14 -151
-32 -160 -40 -36 -31 -84 -47 -215 -71 -90 -16 -150 -33 -179 -49 -36 -20 -71
-27 -208 -42 -91 -9 -169 -20 -175 -23 -5 -4 -112 -9 -237 -12 l-227 -5 -33
-31 c-61 -56 -203 -152 -318 -214 -124 -67 -160 -97 -160 -136 0 -37 26 -82
52 -89 53 -16 80 -59 108 -171 32 -125 94 -224 161 -257 20 -10 25 -22 30 -67
8 -77 37 -168 63 -193 19 -20 86 -123 86 -134 0 -2 9 -16 21 -32 11 -15 24
-52 29 -82 26 -168 69 -285 115 -315 24 -16 36 -16 150 -4 140 14 220 8 284
-22 68 -33 79 -24 176 138 140 235 195 307 384 499 170 173 259 253 330 296
186 113 555 311 649 348 26 10 83 41 127 67 79 48 133 74 369 174 66 28 142
64 169 81 29 18 91 41 150 55 124 31 149 41 239 99 49 32 103 56 172 76 56 17
158 59 228 94 105 52 134 63 161 58 28 -4 40 0 71 27 26 23 58 38 109 50 99
24 205 67 384 158 143 73 153 76 165 59 13 -17 19 -18 59 -7 24 6 60 26 79 44
19 18 43 36 53 39 9 4 21 17 27 31 7 19 20 27 66 36 32 7 100 30 153 51 107
44 110 44 166 24 53 -19 109 -19 147 1 30 15 35 15 81 -1 59 -21 129 -16 193
15 l43 21 44 -26 45 -26 65 22 66 21 33 -20 c18 -11 89 -39 158 -62 69 -23
155 -55 192 -71 36 -16 72 -29 79 -29 6 0 100 -38 209 -84 108 -47 212 -91
231 -99 19 -8 66 -29 104 -46 39 -16 116 -46 173 -65 56 -19 119 -44 140 -55
65 -37 115 -60 202 -95 47 -18 108 -43 135 -54 28 -11 86 -32 130 -45 101 -32
525 -204 545 -222 8 -7 53 -23 99 -35 128 -32 162 -45 366 -140 105 -48 271
-125 370 -170 195 -90 272 -133 380 -215 39 -29 80 -55 92 -58 60 -14 192
-107 288 -202 133 -131 182 -198 206 -279 23 -77 97 -191 166 -257 45 -43 114
-84 243 -143 75 -34 157 -41 248 -22 102 21 152 51 180 106 12 24 42 65 67 90
25 25 45 49 45 54 0 5 17 31 37 58 26 36 39 67 45 106 11 69 17 76 90 113 128
65 201 169 217 309 10 87 17 101 72 128 88 44 112 200 54 357 -42 115 -92 165
-253 255 -15 9 -38 23 -52 32 -36 24 -130 36 -350 43 -262 9 -568 31 -693 51
-56 9 -163 34 -237 55 -74 21 -187 47 -250 58 -120 21 -357 91 -399 118 -23
15 -205 80 -301 108 -138 40 -427 143 -481 170 -19 10 -123 48 -232 85 -109
37 -204 73 -210 79 -6 6 -19 11 -29 11 -10 0 -71 22 -136 50 -213 90 -515 212
-601 242 -46 16 -140 54 -208 84 -69 30 -133 54 -144 54 -11 0 -22 7 -26 15
-7 20 39 124 88 197 32 47 50 62 104 87 36 17 69 31 74 31 5 0 31 15 57 33 85
58 247 145 344 187 51 22 105 48 119 57 45 30 85 53 130 73 24 12 65 36 91 55
26 19 68 44 95 55 26 11 92 45 146 75 53 30 104 55 112 55 8 0 37 15 64 34 26
18 76 47 111 64 34 17 81 44 104 60 24 16 102 61 173 99 72 39 153 83 180 100
166 99 278 133 445 136 85 2 101 -1 155 -26 57 -26 63 -27 95 -13 19 8 69 40
110 72 41 31 84 60 95 65 11 4 54 23 95 41 70 30 82 32 185 31 189 -1 376 -68
452 -160 21 -25 56 -64 77 -87 l39 -41 1 -180 1 -180 34 -63 c104 -192 375
-279 627 -201 140 43 240 111 342 233 121 144 186 340 187 561 0 113 -2 127
-38 233 -36 105 -43 118 -103 181 -65 69 -149 121 -197 121 -45 0 -128 -31
-161 -60 l-33 -30 -89 31 c-80 28 -93 30 -132 20 -108 -28 -273 -3 -361 56
-75 50 -111 83 -111 103 0 9 -7 31 -16 48 -8 18 -22 76 -30 130 -26 172 -49
215 -145 266 -74 40 -88 53 -95 95 -3 20 -21 64 -40 99 -19 34 -34 69 -34 77
0 8 -11 22 -24 30 -32 21 -87 7 -142 -35 -21 -16 -57 -43 -78 -60 -30 -23 -49
-30 -83 -30 -122 0 -180 -42 -288 -207 l-60 -92 -68 -17 c-38 -9 -81 -27 -96
-40 -15 -13 -61 -39 -102 -58 -41 -20 -109 -60 -151 -91 -42 -30 -101 -63
-130 -74 -105 -38 -224 -91 -273 -121 -149 -93 -240 -147 -325 -194 -52 -29
-161 -89 -241 -133 -278 -154 -479 -250 -479 -229 0 4 10 26 21 49 32 61 99
244 99 267 0 52 93 228 175 332 35 45 59 64 109 87 106 48 164 152 173 312 l6
85 -39 59 c-33 49 -39 67 -41 118 -1 37 -8 65 -17 76 -42 46 5 220 85 323 27
34 66 131 90 221 5 21 21 61 34 87 14 27 25 57 25 67 0 10 10 38 21 63 38 83
90 274 105 385 9 63 22 117 30 126 8 9 13 27 10 40 -6 29 -21 222 -41 514 -9
121 -22 258 -30 305 -8 47 -19 117 -24 155 -12 87 -30 169 -46 215 -26 75 -58
168 -83 240 -46 135 -134 296 -292 533 l-156 232 -119 97 c-66 54 -166 130
-222 169 -83 58 -103 78 -109 103 -9 43 -17 51 -96 97 -38 22 -124 82 -192
133 -68 51 -136 96 -150 100 -15 4 -82 31 -149 61 -128 57 -277 112 -337 126
-19 4 -48 11 -63 15 -26 6 -28 4 -25 -16z m1440 -1316 c12 -41 25 -204 17
-204 -7 0 -23 66 -34 140 -2 14 -6 42 -10 64 -8 46 14 47 27 0z m-159 -73 c9
-36 4 -61 -12 -61 -6 0 -14 12 -17 26 -4 16 -12 23 -20 20 -18 -7 -18 -1 2 30
21 31 36 27 47 -15z m197 -249 c0 -33 -4 -51 -10 -47 -5 3 -10 34 -10 68 0 44
3 58 10 47 5 -8 10 -39 10 -68z m220 16 c0 -32 -41 -84 -58 -74 -18 11 -14 33
7 53 11 10 23 31 27 46 8 34 24 18 24 -25z m-145 -60 c4 -35 3 -58 -3 -62 -21
-13 -44 129 -25 148 10 10 20 -21 28 -86z m145 -192 c0 -12 -4 -28 -10 -36 -7
-11 -11 -9 -19 13 -13 33 -14 61 -4 71 10 10 33 -24 33 -48z m230 -623 c16
-149 -3 -334 -31 -306 -8 8 -7 45 1 124 7 65 10 157 6 214 -8 129 10 106 24
-32z m-871 -31 c-4 -74 -11 -103 -24 -90 -3 2 -2 46 2 97 8 114 27 108 22 -7z
m636 -87 c-8 -94 -22 -155 -36 -155 -6 0 -8 8 -5 18 2 9 7 49 11 87 11 126 17
158 27 144 5 -8 6 -50 3 -94z m175 -31 c0 -54 -4 -83 -10 -79 -17 11 -11 165
6 165 2 0 4 -39 4 -86z m-1054 -10 c-15 -33 -30 -53 -36 -49 -8 5 -6 13 4 24
9 10 16 23 16 30 0 6 7 28 17 49 12 27 17 32 20 20 3 -10 -7 -43 -21 -74z
m728 -122 c-9 -48 -26 -112 -36 -142 -11 -30 -23 -68 -26 -84 -4 -16 -14 -32
-21 -34 -10 -3 -12 2 -8 19 4 13 13 51 21 84 8 33 26 98 40 144 15 47 26 99
26 117 0 18 3 41 8 51 15 38 13 -70 -4 -155z m209 108 c7 -60 -4 -110 -23
-110 -6 0 -10 26 -10 63 0 114 23 147 33 47z m-945 -117 c-14 -21 -41 -57 -61
-81 -20 -24 -41 -62 -47 -85 -6 -23 -16 -55 -21 -72 -24 -71 -22 -369 2 -310
4 11 8 51 8 88 1 83 21 207 33 207 5 0 6 -38 2 -88 -5 -61 -1 -127 11 -216 9
-70 14 -130 11 -133 -3 -3 -17 18 -31 48 l-26 54 6 -49 c3 -27 11 -62 19 -77
8 -16 11 -29 6 -29 -17 0 -50 73 -66 143 -8 39 -20 89 -26 109 -22 76 13 277
64 367 33 58 128 174 136 166 3 -3 -6 -22 -20 -42z m993 -17 c-4 -16 -12 -31
-19 -34 -16 -5 -16 39 0 73 10 23 13 24 18 9 4 -10 4 -31 1 -48z m-200 -35
c-6 -11 -11 -27 -11 -37 0 -25 -52 -154 -63 -154 -4 0 -6 8 -3 18 59 186 81
244 84 220 2 -15 -2 -36 -7 -47z m-541 -47 c0 -14 -10 -48 -21 -75 -27 -63
-18 -75 12 -17 21 38 24 40 27 19 2 -13 -1 -28 -7 -34 -14 -14 -14 -50 -1 -42
6 4 19 24 30 46 14 26 27 39 41 39 12 0 27 12 37 30 34 60 45 22 13 -45 -11
-22 -29 -64 -40 -92 -21 -55 -106 -183 -122 -183 -15 0 -10 22 10 44 30 34 93
154 83 160 -8 5 -102 -134 -102 -149 0 -3 -7 -13 -16 -22 -9 -10 -29 -40 -45
-67 -17 -26 -33 -46 -36 -43 -3 4 2 29 11 56 20 61 20 62 1 55 -11 -5 -15 1
-15 24 0 22 6 32 20 37 11 3 20 10 20 14 0 5 14 25 30 46 34 42 37 55 14 55
-8 0 -21 -15 -29 -34 -8 -19 -20 -38 -26 -41 -21 -14 -21 5 2 44 28 51 21 60
-20 26 l-31 -27 6 34 c4 18 13 40 20 49 8 8 19 30 25 47 13 37 34 42 42 11 8
-29 24 -16 38 31 13 42 29 44 29 4z m-131 -43 c-13 -25 -27 -48 -30 -51 -3 -3
-14 -20 -24 -37 -11 -18 -23 -33 -27 -33 -12 0 -10 6 21 57 16 27 32 59 36 73
4 14 15 33 23 43 27 31 27 -1 1 -52z m-39 42 c0 -4 -18 -34 -40 -68 -46 -70
-80 -159 -80 -207 0 -18 -5 -40 -10 -48 -7 -12 -10 -8 -10 15 0 82 55 251 97
297 16 18 43 25 43 11z m1001 -80 c-6 -21 -17 -47 -25 -58 -15 -19 -15 -19
-15 5 -1 30 40 120 46 103 2 -6 -1 -29 -6 -50z m-59 8 c-3 -38 -33 -102 -39
-84 -8 23 18 124 30 120 7 -2 11 -19 9 -36z m-197 -183 c-4 -18 -15 -49 -25
-68 -24 -46 -57 -135 -70 -187 -7 -26 -17 -43 -25 -43 -16 0 -21 35 -6 44 5 3
26 52 46 108 55 151 97 228 80 146z m-115 -107 c0 -11 -4 -23 -10 -26 -5 -3
-10 -19 -10 -34 0 -28 -24 -70 -34 -60 -4 3 1 22 9 42 8 20 15 47 15 60 0 13
3 27 7 30 12 13 23 7 23 -12z m-691 -78 c14 -79 26 -121 53 -181 22 -49 18
-64 -10 -39 -10 10 -24 17 -30 17 -6 0 -13 26 -16 58 -3 31 -11 82 -16 113
-12 68 -13 99 -1 99 5 0 14 -30 20 -67z m471 45 c0 -18 -41 -98 -50 -98 -9 0
6 63 21 93 11 19 29 23 29 5z m-415 -352 c8 -19 17 -70 21 -115 4 -45 11 -81
15 -81 5 0 9 13 9 28 0 31 24 71 35 60 4 -4 2 -30 -5 -59 -17 -69 -7 -156 19
-181 21 -19 29 -82 12 -92 -20 -13 -81 99 -81 148 0 13 -8 34 -19 47 -24 32
-34 66 -21 74 15 9 12 96 -5 145 -13 38 -13 60 1 60 3 0 11 -15 19 -34z m530
-33 c-9 -73 -15 -93 -24 -93 -5 0 -7 26 -4 58 6 70 9 82 23 82 8 0 9 -16 5
-47z m-3145 -43 c13 -45 13 -87 1 -74 -8 8 -41 125 -41 142 1 16 31 -35 40
-68z m3002 -40 c-10 -58 -32 -65 -32 -10 0 23 5 51 11 62 17 32 30 1 21 -52z
m-2896 -5 c4 -8 1 -22 -6 -30 -13 -16 -7 -45 10 -45 5 0 10 10 10 23 1 75 44
41 46 -37 1 -28 7 -127 14 -220 7 -93 10 -214 8 -268 l-5 -98 -82 -164 c-93
-186 -106 -204 -118 -155 l-9 33 -26 -45 c-14 -24 -40 -61 -57 -83 -17 -21
-31 -46 -31 -56 0 -26 -55 -96 -102 -130 -50 -37 -56 -37 -68 -4 -7 19 -15 25
-28 20 -9 -3 -41 -13 -69 -23 -29 -9 -53 -23 -53 -30 0 -27 -85 -15 -156 22
-58 30 -76 35 -136 35 -38 0 -67 4 -64 9 10 15 -53 18 -74 4 -25 -18 -66 -10
-133 24 -59 29 -56 40 5 20 106 -35 134 -28 51 12 -55 27 -42 41 17 17 61 -24
57 -2 -8 49 -58 45 -99 100 -91 123 2 7 23 -13 46 -43 49 -63 112 -98 165 -93
34 4 26 11 -25 23 -16 3 -47 23 -70 45 -38 35 -40 40 -25 52 15 12 15 18 1 63
-8 28 -17 66 -19 85 -4 30 -1 26 19 -23 34 -80 98 -161 153 -193 40 -24 53
-26 113 -22 82 6 100 14 74 33 -15 11 -16 16 -5 27 9 9 43 13 111 13 120 0
135 8 125 72 -4 26 -2 43 4 43 5 0 12 8 15 19 2 11 24 26 53 37 27 10 82 38
122 63 105 63 153 134 173 256 13 74 27 112 48 128 22 16 71 83 71 96 0 21
-25 11 -63 -26 -37 -36 -40 -37 -51 -18 -6 11 -23 31 -38 46 -31 30 -44 87
-30 134 l9 30 16 -35 15 -35 1 51 c1 28 -4 65 -10 82 -6 17 -9 43 -7 59 l4 28
12 -30 c7 -16 21 -46 32 -66 16 -29 18 -47 13 -107 -4 -52 -3 -72 6 -72 16 0
19 12 30 122 12 123 48 204 67 153z m-642 -77 c9 -29 21 -72 26 -96 6 -23 24
-57 40 -76 17 -18 30 -39 30 -45 0 -38 -86 32 -120 98 -15 30 -27 40 -54 45
-19 4 -47 4 -62 0 -20 -5 -26 -3 -22 7 3 8 15 15 27 17 15 2 28 16 37 38 19
45 31 43 44 -6 15 -57 33 -41 25 21 -9 66 10 64 29 -3z m279 5 c3 -16 20 -86
36 -156 33 -136 51 -183 59 -157 3 8 12 20 21 26 13 10 14 23 4 105 -7 51 -10
95 -7 98 14 15 26 -30 35 -140 8 -85 16 -130 27 -141 13 -16 13 -18 0 -18 -8
0 -23 9 -33 20 -15 17 -26 20 -60 14 -43 -6 -91 9 -130 40 -19 15 -19 17 -2
27 12 7 17 23 17 55 0 28 4 43 10 39 21 -13 23 27 3 44 -28 22 -40 47 -47 101
l-6 45 15 -30 c8 -16 14 -36 15 -42 0 -7 7 -13 16 -13 13 0 14 9 9 55 -8 57 8
80 18 28z m2618 -67 c5 -6 9 -22 9 -37 0 -42 18 -45 22 -4 4 45 22 50 26 7 6
-57 27 -31 24 29 l-2 54 20 -24 c11 -13 20 -34 20 -47 0 -28 16 -40 35 -24 12
10 16 9 21 -6 4 -11 18 -46 30 -78 28 -70 30 -108 8 -127 -14 -11 -16 -27 -11
-89 9 -113 -27 -382 -64 -466 -10 -25 -19 -57 -19 -70 0 -35 -65 -158 -96
-183 -15 -12 -37 -21 -50 -21 -12 0 -26 -4 -29 -10 -11 -17 -37 -11 -42 10 -6
24 -3 24 -41 4 -21 -10 -37 -12 -49 -6 -10 5 -24 7 -30 5 -18 -7 -16 7 8 46
11 18 19 45 17 60 -3 24 -6 21 -36 -30 -18 -31 -41 -64 -52 -74 -19 -17 -21
-17 -38 -2 -10 10 -26 17 -36 17 -9 0 -43 14 -76 30 -33 17 -60 26 -60 21 0
-14 78 -81 108 -93 16 -6 22 -12 14 -15 -25 -9 -61 7 -126 57 -36 28 -70 50
-76 50 -15 0 -12 -22 6 -48 27 -39 -12 -27 -58 18 l-40 39 21 27 c25 32 27 56
5 90 -12 17 -14 28 -7 35 7 7 19 -4 36 -33 27 -46 97 -119 97 -101 0 6 -16 34
-35 63 -33 49 -44 80 -27 80 28 -2 124 -31 142 -43 12 -9 29 -13 38 -10 9 4
25 -6 42 -27 l27 -33 50 49 c50 49 81 110 69 140 -8 22 -26 7 -26 -21 0 -13
-4 -26 -9 -30 -13 -7 -31 27 -31 58 0 26 25 44 35 26 4 -5 11 -7 16 -4 12 8
12 132 -1 140 -6 4 -10 -8 -10 -30 0 -22 -4 -34 -10 -30 -5 3 -10 45 -10 93
-1 48 -5 107 -10 132 -9 47 1 82 23 77 8 -1 11 14 10 51 -1 28 2 52 6 52 5 0
17 -20 28 -45 10 -25 21 -45 25 -45 19 0 18 47 -2 100 -12 32 -20 71 -18 86 5
32 6 30 33 -61 22 -71 31 -83 47 -67 10 10 8 26 -11 78 -22 62 -23 94 -2 94 5
0 17 -24 25 -54 9 -29 23 -59 31 -66 13 -11 15 -8 15 19 0 17 -7 48 -15 68 -8
19 -15 46 -15 59 0 25 14 32 26 13 11 -19 24 12 24 62 0 47 12 75 18 42 2 -10
8 -22 13 -27z m409 4 c11 -11 20 -28 20 -38 0 -11 9 -27 20 -37 11 -10 20 -27
20 -37 0 -10 7 -35 15 -55 11 -26 12 -40 5 -47 -17 -16 -48 27 -68 95 -12 41
-24 61 -39 68 -23 11 -28 26 -17 55 8 21 20 20 44 -4z m-3230 -35 c0 -53 -24
-63 -34 -14 -10 50 -7 59 14 59 17 0 20 -7 20 -45z m115 -7 c13 -61 17 -143 7
-133 -13 14 -52 147 -46 157 12 19 32 6 39 -24z m-42 -83 c9 -20 17 -45 17
-56 0 -11 7 -22 15 -25 16 -6 21 -44 7 -44 -25 0 -72 85 -72 130 0 40 12 38
33 -5z m1464 -148 c4 -59 -34 -218 -54 -225 -18 -5 -16 33 7 130 11 46 20 94
20 108 -1 24 -1 24 -15 6 -8 -11 -18 -34 -21 -53 -9 -49 -27 -41 -21 10 5 41
15 89 23 116 3 10 12 6 31 -13 20 -21 27 -39 30 -79z m1584 2 c20 -117 -1
-296 -60 -508 -16 -58 -37 -150 -46 -203 -14 -83 -22 -105 -56 -152 -21 -30
-39 -59 -39 -64 0 -5 9 -17 20 -27 19 -17 20 -29 18 -119 -3 -93 -5 -101 -23
-101 -14 0 -22 -10 -30 -37 -20 -73 -27 -51 -21 72 5 110 4 121 -7 91 -14 -36
-20 -34 -31 12 -10 42 -23 32 -30 -23 -7 -53 -26 -79 -26 -35 0 19 -9 31 -35
46 -19 12 -35 27 -35 35 0 8 -3 14 -7 14 -11 0 -8 -164 3 -170 5 -3 15 14 22
38 20 61 32 42 16 -25 -19 -79 -18 -214 2 -285 9 -32 21 -58 26 -58 6 0 8 6 5
14 -12 31 -19 156 -10 156 10 0 20 -22 39 -84 11 -35 34 -47 34 -17 0 22 14
28 25 11 13 -22 25 -8 25 30 0 22 5 40 10 40 6 0 10 -13 10 -29 0 -17 5 -33
10 -36 6 -3 10 -15 10 -25 0 -11 14 -35 30 -53 40 -46 45 -80 26 -175 -26
-127 -50 -196 -69 -200 -25 -5 -22 32 8 112 28 75 33 136 11 136 -15 0 -26
-21 -26 -49 0 -10 -9 -29 -19 -43 -15 -19 -18 -34 -14 -66 5 -37 3 -42 -14
-42 -27 0 -43 19 -43 53 l0 30 -19 -24 c-10 -13 -25 -38 -34 -54 -26 -51 -90
-106 -148 -126 -30 -10 -56 -18 -58 -19 -5 0 6 72 15 94 5 13 4 17 -4 13 -6
-4 -18 -29 -27 -57 -16 -49 -71 -110 -100 -110 -8 0 -29 -18 -46 -40 -18 -22
-40 -40 -50 -40 -19 0 -29 -19 -29 -56 0 -16 -8 -28 -25 -36 -18 -8 -25 -19
-25 -38 0 -14 -6 -35 -14 -46 -13 -17 -15 -17 -21 -3 -3 9 -5 36 -3 60 2 35 7
43 20 41 21 -3 44 39 59 110 7 29 22 66 36 82 22 26 23 36 21 115 -3 78 -5 86
-23 86 -16 0 -21 -8 -23 -35 -11 -140 -53 -300 -78 -300 -20 0 -16 36 20 169
18 70 22 98 14 108 -11 14 -7 60 11 106 9 24 13 26 32 17 33 -18 46 -5 59 57
16 76 7 172 -21 221 l-23 39 22 37 c12 20 22 47 22 59 0 30 15 51 29 42 8 -5
10 -24 6 -59 -6 -43 -3 -56 13 -76 19 -23 22 -24 37 -9 9 9 19 36 22 60 8 75
16 77 23 7 6 -66 18 -96 27 -70 9 25 22 1 16 -32 -3 -19 1 -45 9 -62 13 -25
13 -42 0 -132 -14 -99 -11 -133 8 -102 16 26 23 119 18 261 -2 76 -1 139 3
139 14 0 28 -35 35 -88 9 -72 24 -55 24 28 0 71 16 106 22 48 2 -21 8 -33 18
-33 12 0 14 15 11 85 -2 54 -8 91 -17 101 -8 8 -14 32 -14 52 0 41 -14 56 -29
30 -14 -25 -20 -14 -32 56 -14 76 -32 81 -23 7 7 -58 0 -106 -16 -106 -5 0
-17 17 -26 38 -15 35 -16 36 -30 17 -8 -11 -19 -36 -24 -57 -11 -39 -30 -61
-30 -34 0 19 -11 21 -27 5 -8 -8 -28 -6 -73 5 -56 15 -65 15 -80 1 -36 -33
-70 -11 -70 47 0 21 -4 38 -10 38 -5 0 -10 -12 -10 -27 0 -40 -11 -74 -21 -67
-5 3 -9 16 -9 29 0 13 -3 30 -6 39 -11 28 -24 17 -24 -18 0 -44 -17 -56 -25
-19 -10 44 -37 103 -48 103 -5 0 -6 -8 -2 -17 15 -37 21 -79 15 -103 -6 -22
-8 -19 -24 27 -22 65 -36 76 -36 28 0 -20 -4 -34 -9 -31 -4 3 -25 45 -46 93
-36 81 -65 131 -65 108 0 -6 21 -68 46 -140 55 -158 59 -175 42 -197 -12 -16
-15 -16 -48 0 -32 16 -35 22 -46 82 -6 36 -15 83 -19 105 -7 37 -7 39 8 26 15
-12 17 -11 17 10 -1 13 -7 35 -15 49 -8 14 -15 36 -15 50 0 14 -4 32 -10 40
-8 12 -10 12 -16 -4 -6 -16 -1 -37 23 -103 3 -7 0 -13 -5 -13 -6 0 -19 26 -29
58 -10 31 -21 59 -25 60 -5 2 -8 11 -8 20 0 12 -3 13 -11 5 -8 -8 -7 -24 4
-60 9 -26 32 -108 53 -181 30 -110 36 -144 31 -194 -9 -100 -23 -95 -37 13 -5
41 -17 99 -27 129 l-18 55 -3 -55 c-6 -126 -25 -101 -46 61 -8 63 -22 134 -30
159 -13 43 -14 44 -23 21 -7 -17 -12 -21 -17 -12 -4 6 -3 18 4 26 8 10 8 24
-1 57 -7 24 -16 47 -21 53 -4 5 -8 16 -8 25 0 8 -11 39 -25 68 -13 28 -22 52
-19 52 11 0 43 -46 44 -62 0 -9 4 -20 10 -23 14 -8 50 -94 50 -118 0 -28 71
-217 82 -217 12 0 11 7 -17 115 -46 184 -197 445 -257 445 -10 0 -18 7 -18 15
0 9 -7 27 -16 41 -18 27 -11 44 10 29 85 -62 218 -183 286 -260 119 -135 164
-175 198 -175 15 0 33 -5 40 -12 6 -6 33 -11 59 -9 446 19 680 39 735 63 39
17 115 110 135 164 26 71 54 170 72 261 11 54 30 125 41 157 24 71 25 89 5
106 -20 17 -19 27 5 33 18 5 20 14 20 113 0 121 13 131 31 23z m477 -9 c-4
-55 -20 -92 -33 -78 -10 9 16 138 27 138 6 0 9 -23 6 -60z m-2168 13 c0 -47
-17 -110 -32 -119 -8 -5 -9 11 -4 59 3 37 9 74 12 82 11 28 24 15 24 -22z
m1766 -9 c3 -19 3 -56 0 -82 -4 -26 -10 -74 -13 -107 -5 -47 -8 -55 -14 -35
-9 31 -11 223 -3 244 10 26 23 18 30 -20z m668 -87 c-25 -62 -46 -88 -60 -75
-2 3 14 45 37 94 50 105 67 91 23 -19z m-619 -34 c-3 -13 -10 -21 -16 -18 -10
7 -4 79 9 120 9 26 16 -69 7 -102z m77 86 c21 -29 28 -90 11 -96 -7 -3 -13 2
-13 10 0 8 -9 26 -20 40 -22 28 -28 81 -8 75 6 -2 20 -15 30 -29z m-66 -314
c-20 -66 -42 -145 -51 -175 l-15 -55 5 70 c5 63 16 115 46 211 5 17 9 40 9 52
0 11 5 24 10 27 6 3 10 21 10 39 0 53 15 52 18 0 2 -33 -8 -86 -32 -169z
m-2522 133 c51 -107 47 -214 -10 -274 -19 -20 -34 -41 -34 -45 0 -5 -7 -9 -15
-9 -8 0 -15 7 -15 15 0 22 -18 18 -25 -5 -9 -27 -43 -46 -58 -31 -8 8 -16 6
-29 -6 -10 -9 -20 -14 -23 -11 -8 7 31 95 66 149 36 57 89 199 89 239 0 47 26
36 54 -22z m1636 5 c0 -41 52 -203 63 -196 10 6 5 55 -12 121 -7 28 -8 49 -2
60 8 14 10 13 16 -11 8 -29 25 -37 25 -12 0 17 16 20 25 5 10 -15 25 -2 25 22
0 32 28 3 36 -37 7 -41 -2 -61 -21 -45 -24 20 -27 -8 -3 -30 17 -15 22 -31 22
-61 -2 -52 -26 -79 -74 -79 -41 0 -65 19 -75 63 -5 19 -11 25 -17 19 -7 -7 -6
-23 2 -47 8 -25 9 -40 2 -47 -13 -13 -32 -2 -32 20 0 9 -7 35 -14 57 -8 22
-17 63 -20 90 l-6 50 25 -54 c14 -30 28 -52 31 -48 3 3 1 37 -5 76 -14 87 -14
111 -1 111 6 0 10 -12 10 -27z m857 -22 c-9 -67 -34 -162 -45 -173 -21 -21
-26 1 -9 39 9 21 19 58 22 83 11 81 16 100 27 94 5 -4 8 -23 5 -43z m113 -7
c0 -26 -14 -87 -31 -136 -17 -50 -37 -115 -45 -145 -15 -59 -19 -228 -5 -219
4 3 12 42 15 86 7 72 46 244 60 257 3 3 12 3 20 0 21 -8 29 -84 17 -152 -14
-73 -14 -105 -1 -105 6 0 10 11 10 24 0 14 4 27 9 30 11 7 21 -28 21 -77 0
-31 4 -39 25 -47 28 -11 33 -28 10 -36 -12 -5 -15 -25 -15 -93 -1 -108 -12
-91 -36 51 -18 111 -34 133 -34 48 0 -66 -8 -84 -28 -68 -13 11 -15 8 -9 -27
15 -94 19 -176 12 -222 l-7 -48 -15 40 c-8 22 -17 81 -20 130 -6 114 -10 127
-29 100 -13 -17 -16 -18 -24 -5 -16 26 -23 120 -16 214 6 86 12 113 42 198 8
21 16 64 20 95 6 64 33 153 46 153 4 0 8 -21 8 -46z m-1074 -45 c8 -35 24 -89
35 -121 22 -60 23 -93 1 -80 -16 10 -62 185 -62 236 0 53 8 41 26 -35z m-116
13 c0 -42 37 -150 45 -131 3 8 1 28 -4 42 -11 28 -5 57 10 57 5 0 11 -6 13
-12 39 -148 41 -183 6 -141 l-17 22 -10 -21 c-8 -19 -10 -19 -25 -5 -27 27
-54 238 -28 222 6 -3 10 -18 10 -33z m-515 -38 c15 -25 55 -80 89 -122 34 -42
80 -104 102 -137 60 -91 88 -130 97 -133 4 -2 7 -10 7 -19 0 -19 -21 -12 -34
13 -6 10 -12 21 -14 24 -2 2 -7 -2 -13 -10 -14 -22 -93 62 -84 90 8 25 -14 68
-25 50 -7 -11 -13 -10 -34 3 -31 20 -129 137 -122 145 3 3 26 -14 52 -37 25
-24 48 -41 50 -38 9 9 -66 126 -113 179 -14 16 -11 38 7 38 4 0 20 -21 35 -46z
m117 9 c14 -21 57 -72 95 -113 38 -42 95 -109 128 -150 32 -41 90 -110 128
-153 38 -44 66 -81 63 -84 -15 -15 -117 87 -208 207 -31 41 -93 120 -138 175
-83 101 -118 155 -102 155 5 0 21 -17 34 -37z m109 -40 c83 -87 151 -172 147
-183 -3 -11 -229 228 -236 250 -8 23 32 -7 89 -67z m-1971 -9 c29 -95 26 -137
-5 -58 -13 33 -27 78 -31 99 -11 61 13 33 36 -41z m6046 65 c3 -6 12 -33 19
-60 11 -41 11 -49 0 -49 -8 0 -18 7 -23 16 -6 11 -11 13 -16 5 -10 -15 2 -31
22 -31 50 0 87 -67 56 -101 -20 -22 -13 -25 17 -6 18 10 23 9 45 -16 15 -18
24 -40 24 -62 0 -44 18 -55 22 -13 2 21 8 33 18 33 11 0 17 -17 23 -65 24
-203 30 -228 46 -201 10 16 16 6 25 -41 12 -68 124 -191 216 -238 19 -10 55
-23 80 -30 25 -7 59 -19 75 -28 23 -12 74 -17 215 -22 185 -5 222 -12 200 -34
-8 -8 1 -21 36 -52 40 -34 46 -43 36 -59 -8 -14 -7 -27 4 -47 10 -19 12 -34 5
-46 -5 -9 -13 -47 -19 -83 -14 -89 -53 -167 -90 -175 -15 -4 -40 -16 -57 -28
-41 -29 -67 -45 -87 -52 -16 -6 -16 -8 2 -31 40 -52 17 -58 -40 -12 -22 18
-50 48 -63 68 -30 44 -182 212 -219 241 -56 43 -26 -2 65 -97 51 -54 110 -124
130 -156 37 -56 38 -60 21 -78 -14 -15 -14 -21 -4 -34 14 -17 61 -20 76 -5 5
5 15 5 23 1 11 -7 9 -13 -8 -30 -16 -16 -34 -22 -64 -22 -23 1 -53 0 -67 0
-18 -1 -37 13 -66 45 -24 27 -49 46 -61 46 -29 0 -73 55 -73 90 0 60 46 50 83
-18 33 -57 42 -69 85 -105 42 -34 59 -35 37 -1 -10 16 -14 35 -10 53 5 23 -3
40 -42 92 -69 93 -186 207 -280 273 -46 32 -85 62 -89 67 -10 17 3 21 40 11
20 -6 36 -6 36 -2 0 27 -245 154 -320 166 -63 10 -43 -11 33 -35 63 -19 152
-65 163 -82 13 -22 -7 -20 -62 5 -31 14 -63 26 -71 26 -26 0 5 -29 40 -38 37
-10 48 -32 15 -32 -27 0 -103 33 -112 49 -4 6 2 15 14 19 20 7 19 10 -17 25
-53 24 -141 37 -250 37 -51 0 -93 4 -93 9 0 5 20 17 45 26 44 17 52 35 15 35
-11 0 -34 -7 -52 -14 -18 -8 -98 -40 -178 -71 -80 -32 -196 -83 -259 -116 -63
-32 -117 -57 -119 -54 -3 3 -3 7 -1 9 19 16 171 102 208 117 25 11 69 31 96
44 54 27 296 128 333 139 12 4 22 14 22 22 0 19 -2 18 -60 -11 -27 -14 -57
-25 -65 -25 -46 0 -472 -194 -635 -289 -66 -39 -133 -73 -148 -77 l-27 -5 33
29 c19 17 189 108 378 203 200 101 340 177 335 182 -17 17 -457 -183 -571
-260 -19 -13 -41 -23 -49 -23 -8 0 -22 -6 -30 -14 -9 -8 -38 -26 -66 -41 -77
-43 -107 -75 -69 -75 27 0 10 -23 -42 -58 -71 -47 -393 -207 -401 -199 -4 4
-1 13 6 20 12 12 148 89 189 107 13 6 61 33 108 60 47 28 89 50 94 50 6 0 10
5 10 11 0 6 -9 8 -22 4 -45 -14 -308 -144 -361 -179 -30 -20 -59 -36 -65 -36
-6 0 -23 -7 -39 -15 -15 -8 -98 -47 -183 -86 -358 -165 -489 -227 -531 -251
-24 -14 -82 -45 -129 -68 -122 -61 -261 -140 -290 -166 -29 -25 -177 -114
-191 -114 -15 0 -10 11 14 30 31 26 16 34 -28 16 -21 -9 -44 -16 -52 -16 -13
0 -13 2 -2 16 8 9 14 24 14 33 0 8 19 26 43 39 40 22 55 42 31 42 -6 0 -47
-16 -92 -35 -142 -62 -145 -39 -4 31 104 53 171 93 164 100 -6 7 -176 -69
-284 -127 -119 -64 -143 -73 -143 -54 0 8 66 47 163 94 194 96 341 177 345
190 3 9 -87 -29 -261 -108 -78 -35 -107 -41 -86 -15 7 8 30 24 51 35 44 23 51
41 11 30 -54 -16 -157 -61 -174 -77 -10 -9 -29 -14 -46 -12 l-28 4 30 13 c87
38 411 206 507 262 40 24 93 61 118 82 25 22 55 44 68 50 12 6 22 18 22 28 0
19 19 29 56 29 25 0 33 15 12 24 -23 9 20 33 357 202 182 91 337 172 346 180
8 8 31 14 51 14 22 0 46 9 64 23 15 12 44 27 63 32 28 8 36 16 36 35 0 15 7
26 18 28 9 2 17 -1 17 -7 0 -22 22 -9 90 53 74 68 105 85 123 67 11 -11 159
63 273 135 27 18 67 39 87 48 21 8 61 30 90 49 31 21 71 37 100 41 26 4 47 11
47 17 0 5 12 9 28 9 24 1 25 2 9 11 -15 9 -16 13 -5 26 42 51 229 81 307 49
48 -19 132 -21 149 -4 20 20 14 38 -15 38 l-27 0 34 35 c19 19 29 35 23 35 -6
0 -16 -7 -23 -15 -16 -20 -36 -19 -44 1 -5 13 -10 12 -36 -9 -46 -39 -101 -50
-72 -15 11 15 11 66 -2 86 -4 7 -2 19 5 28 6 8 12 29 13 47 1 27 7 35 38 50
20 10 65 22 99 28 86 14 126 35 155 81 22 35 28 38 69 38 24 0 47 -5 51 -11z
m-6402 -61 c10 -35 31 -94 47 -131 30 -67 32 -86 9 -72 -23 14 -55 105 -84
238 -12 54 11 25 28 -35z m130 -42 c33 -107 33 -112 -6 -120 -38 -8 -48 0 -23
17 13 10 16 21 12 43 -24 117 -26 144 -13 144 2 0 15 -38 30 -84z m186 -28 c0
-10 6 -27 12 -38 10 -15 10 -22 0 -32 -20 -20 -33 3 -38 68 -5 55 -4 58 10 40
9 -11 16 -28 16 -38z m2012 -92 c30 -44 34 -56 18 -56 -12 0 -130 147 -130
162 0 16 82 -61 112 -106z m202 53 c12 10 18 2 34 -41 30 -82 34 -98 24 -98
-18 0 -142 153 -142 175 0 3 16 -6 35 -21 28 -21 38 -24 49 -15z m-618 -11 c3
-18 10 -39 14 -48 16 -32 33 -100 26 -107 -10 -10 -26 17 -26 45 0 13 -6 35
-14 50 -19 38 -32 107 -18 98 6 -3 14 -21 18 -38z m-4793 -6 c36 -18 107 -65
159 -104 51 -39 115 -88 141 -109 46 -34 82 -50 151 -64 39 -8 16 -25 -34 -25
l-35 0 34 -22 c32 -21 34 -21 67 -3 44 24 122 16 143 -14 10 -16 24 -21 60
-21 37 0 52 -5 68 -22 31 -35 42 -61 36 -89 -2 -14 2 -42 11 -63 14 -33 18
-36 37 -26 24 14 21 16 48 -37 22 -44 94 -104 169 -142 24 -12 47 -33 52 -46
11 -29 84 -78 108 -72 13 3 9 8 -15 23 -35 20 -42 34 -19 34 8 0 142 -64 298
-143 156 -78 297 -148 313 -154 220 -80 269 -100 273 -112 2 -6 -7 -11 -19
-11 -14 0 -19 -4 -13 -9 5 -6 29 -5 61 1 57 11 53 13 203 -79 102 -62 138 -73
244 -73 89 0 99 -2 182 -40 48 -23 147 -61 219 -87 173 -60 315 -127 315 -148
0 -8 7 -27 16 -40 17 -27 13 -52 -10 -61 -8 -3 -46 8 -84 25 -73 32 -102 38
-102 21 0 -12 83 -55 135 -69 37 -10 41 -14 58 -68 9 -32 17 -89 17 -126 0
-59 2 -67 18 -65 15 3 17 -4 14 -52 -5 -113 -21 -126 -59 -50 -15 29 -23 62
-23 96 0 55 -7 84 -20 84 -4 0 -10 -9 -13 -20 -8 -29 -55 -26 -137 10 -38 17
-75 30 -83 30 -7 0 -40 13 -73 29 -32 17 -90 42 -129 56 -189 71 -278 108
-379 157 -43 21 -84 38 -92 38 -7 0 -68 25 -136 56 -68 30 -152 67 -188 80
-36 14 -74 30 -85 34 -11 5 -47 17 -80 28 -33 11 -101 39 -152 61 -103 45
-143 58 -143 44 0 -12 113 -65 280 -132 69 -27 208 -84 310 -126 102 -42 201
-81 220 -87 19 -6 60 -23 90 -38 30 -15 109 -49 175 -75 66 -25 161 -64 211
-86 50 -21 97 -39 104 -39 8 0 41 -11 74 -23 34 -13 82 -32 108 -41 61 -22 98
-52 80 -64 -14 -9 -272 72 -342 108 -22 11 -48 20 -59 20 -11 0 -22 4 -25 9
-3 5 -18 12 -33 16 -39 9 -127 47 -269 116 -67 33 -130 59 -140 59 -11 0 -46
13 -79 28 -63 30 -155 67 -455 182 -102 40 -221 87 -265 107 -73 32 -114 48
-305 119 -36 13 -77 33 -92 44 -15 11 -39 20 -54 20 -15 0 -46 11 -69 24 -23
14 -64 30 -91 37 -27 6 -83 29 -125 50 -41 22 -81 39 -87 39 -7 0 -12 5 -12
11 0 7 9 9 24 5 13 -3 37 -1 53 4 22 8 38 7 63 -4 30 -12 38 -12 64 1 26 14
34 13 85 -3 31 -10 60 -22 66 -26 12 -11 35 -10 35 1 0 5 -8 11 -17 15 -10 3
-25 10 -33 15 -66 40 -102 46 -285 45 -99 -1 -214 -3 -255 -5 -61 -3 -84 1
-125 19 -89 41 -129 99 -90 132 8 7 15 21 15 32 0 11 9 22 20 25 23 6 23 5 9
36 -6 14 -22 30 -35 35 -15 8 -28 27 -37 60 -8 26 -28 62 -43 79 -16 16 -37
41 -46 55 -23 35 -114 93 -168 109 -25 7 -49 16 -55 21 -5 5 -13 48 -16 96
-10 136 -19 147 -164 197 -87 31 -135 59 -135 80 0 19 10 24 115 62 118 42
184 41 278 -5z m5403 -109 c64 -87 92 -132 80 -127 -25 10 -116 126 -116 148
0 14 18 4 36 -21z m-476 -117 c0 -8 11 -38 25 -68 29 -63 33 -87 10 -68 -8 7
-15 17 -15 23 0 6 -7 18 -15 27 -20 22 -65 145 -65 178 0 24 4 21 30 -25 17
-29 30 -59 30 -67z m362 72 c18 -24 66 -80 106 -125 40 -46 70 -83 67 -83 -43
0 -160 124 -214 228 -20 37 5 25 41 -20z m1209 -143 c19 -188 22 -345 8 -380
-9 -23 -13 -26 -16 -12 -6 25 -18 21 -29 -10 -10 -26 -11 -22 -18 37 -4 36 -6
74 -5 85 1 11 1 34 0 50 -5 65 -20 -10 -20 -103 -1 -59 -5 -91 -11 -87 -5 3
-10 19 -10 36 0 29 -13 39 -25 19 -3 -5 -13 -10 -21 -10 -10 0 -14 12 -14 40
0 43 14 54 25 19 23 -70 51 97 47 275 -2 72 -1 140 3 153 10 40 25 25 25 -26
0 -28 5 -53 10 -56 6 -4 10 9 10 32 0 21 3 56 7 78 l7 40 7 -30 c4 -16 13 -84
20 -150z m54 -81 c9 -30 15 -88 14 -136 l-1 -83 -14 70 c-43 220 -49 263 -38
312 7 36 8 34 16 -37 4 -41 15 -98 23 -126z m3025 162 c0 -39 -17 -57 -27 -29
-3 10 -12 22 -20 26 -7 4 -13 12 -13 17 0 7 10 11 53 19 4 0 7 -14 7 -33z
m-9720 -92 c9 -9 14 -31 12 -63 -2 -45 1 -52 33 -80 20 -17 48 -33 63 -36 70
-15 162 -80 162 -116 0 -34 22 -68 51 -78 20 -7 29 -17 29 -31 0 -12 10 -43
21 -70 21 -48 20 -80 0 -80 -18 0 -34 43 -40 105 -6 63 -20 77 -34 35 -14 -38
9 -130 44 -184 20 -30 29 -55 27 -73 -3 -28 -4 -28 -69 -27 -46 0 -78 7 -105
21 -98 51 -331 71 -498 44 -93 -16 -224 -59 -261 -86 -78 -58 -203 -182 -280
-278 -100 -125 -110 -134 -101 -83 8 41 -4 47 -27 14 -8 -13 -18 -20 -21 -17
-10 10 20 70 63 128 39 50 51 81 33 81 -12 0 -77 -71 -97 -107 -10 -18 -22
-30 -26 -27 -16 9 -4 128 15 157 10 15 23 48 27 74 12 63 26 79 50 57 15 -14
21 -14 34 -4 21 17 19 27 -7 33 -22 6 -22 7 7 38 l30 32 -37 -7 c-30 -5 -38
-4 -38 8 0 18 52 59 103 80 20 8 37 20 37 25 0 15 -7 14 -62 -6 -26 -9 -51
-13 -55 -9 -14 13 13 40 55 54 50 16 47 28 -8 37 -42 7 -53 28 -22 40 9 3 47
9 84 12 37 3 65 10 62 14 -3 5 -14 9 -25 9 -10 0 -19 4 -19 8 0 9 63 28 142
41 31 6 79 21 105 34 26 14 63 28 81 32 18 4 52 22 76 40 24 18 53 38 64 44
11 6 44 31 73 57 30 25 68 53 84 61 17 9 45 29 64 45 36 31 70 32 101 2z
m4645 -205 c3 -74 -7 -141 -23 -147 -9 -3 -12 17 -12 80 0 46 3 93 6 106 11
40 27 18 29 -39z m-5728 -10 c62 -23 106 -89 118 -175 7 -59 -16 -215 -46
-302 -10 -30 -19 -65 -19 -78 0 -12 -10 -44 -21 -71 -26 -57 -31 -195 -10
-258 24 -73 68 -130 121 -159 62 -34 70 -46 30 -46 -26 0 -45 13 -100 66 -73
70 -109 83 -65 24 28 -39 31 -50 11 -50 -13 0 -76 84 -76 102 0 4 -4 8 -10 8
-16 0 -11 -45 8 -71 9 -13 22 -33 28 -44 14 -27 129 -113 160 -121 31 -8 45 4
22 19 -9 7 -25 18 -35 25 -16 11 -14 12 12 6 17 -3 58 -8 93 -11 68 -5 71 -14
14 -39 -20 -9 -31 -18 -24 -21 19 -7 14 -58 -8 -78 -43 -39 -177 5 -267 88
-42 38 -103 142 -103 175 0 7 -10 32 -22 55 -21 38 -23 40 -26 18 -2 -16 17
-67 52 -138 62 -124 140 -217 192 -228 16 -3 36 -10 44 -14 9 -5 30 -12 48
-16 18 -3 32 -11 32 -15 0 -5 -6 -8 -12 -5 -7 2 -49 11 -92 20 -74 16 -84 21
-138 73 -32 30 -61 52 -65 49 -20 -21 72 -112 160 -157 27 -14 47 -29 45 -35
-9 -29 -133 30 -201 96 -55 53 -71 57 -38 10 33 -46 111 -111 161 -135 l45
-21 -94 -3 -93 -3 -55 42 c-30 23 -58 50 -64 61 -5 10 -14 18 -19 18 -19 0
-10 -23 25 -66 37 -45 41 -54 25 -54 -21 0 -73 47 -128 115 -31 39 -78 93
-103 121 -61 68 -87 140 -101 277 -12 126 -3 218 37 370 39 152 78 228 201
393 117 158 244 224 351 183z m11872 -168 c80 -21 146 -97 135 -156 -3 -19 2
-47 16 -78 12 -26 25 -85 30 -130 5 -45 16 -99 24 -119 9 -21 16 -47 16 -59 0
-18 -2 -19 -15 -9 -12 10 -15 9 -15 -5 0 -10 5 -35 12 -56 13 -45 8 -55 -20
-38 -18 11 -24 9 -51 -20 -16 -17 -33 -41 -37 -53 -3 -12 -17 -44 -30 -72 -21
-46 -22 -52 -7 -68 22 -25 10 -52 -17 -38 -18 10 -28 6 -68 -31 -26 -24 -51
-50 -55 -58 -5 -9 -27 -33 -50 -53 l-42 -38 31 0 c18 0 38 -8 49 -20 18 -20
17 -20 -22 -20 -22 0 -57 -7 -76 -15 -53 -22 -58 -19 -40 23 20 48 37 67 100
109 77 51 183 208 183 270 0 33 -16 21 -45 -35 -40 -79 -88 -146 -130 -183
-62 -55 -126 -99 -145 -99 -10 0 -39 -10 -66 -22 l-49 -23 65 -5 c68 -6 68 -6
-12 -36 -58 -21 -210 -29 -276 -14 -70 16 -77 22 -60 49 11 19 11 24 -6 37
-11 8 -26 14 -34 14 -26 0 -112 43 -112 56 0 25 18 23 86 -11 38 -20 83 -39
99 -44 30 -8 34 -19 20 -53 -6 -16 1 -18 86 -18 52 0 101 5 109 10 16 10 -16
14 -94 10 -24 -1 -36 2 -32 9 6 9 38 17 208 51 73 15 162 79 225 162 57 75
103 157 103 183 0 29 -16 15 -43 -37 -59 -113 -74 -134 -137 -185 -36 -28 -87
-62 -115 -74 -27 -12 -58 -25 -67 -30 -43 -22 -259 -2 -295 28 -17 13 -16 14
12 8 74 -14 112 -16 140 -5 39 15 23 24 -65 40 -55 9 -117 24 -192 46 -12 4
-18 0 -18 -10 0 -22 -14 -20 -47 8 -21 19 -25 27 -16 36 8 9 19 9 46 -1 20 -7
42 -9 53 -4 16 7 15 9 -12 15 -43 10 -54 18 -54 41 0 23 18 24 49 3 17 -12 33
-15 64 -9 23 3 81 10 128 15 60 6 101 16 137 34 28 14 59 26 68 26 25 0 143
109 165 152 13 25 21 66 24 111 2 40 9 108 16 151 15 98 3 176 -36 234 -15 22
-25 49 -23 59 1 10 23 28 48 41 48 25 93 25 179 3z m-3991 -225 c4 -73 2 -88
-9 -84 -9 3 -15 22 -17 49 -1 24 -5 78 -7 119 l-5 75 16 -35 c9 -20 19 -74 22
-124z m-83 98 c8 -20 15 -45 15 -56 0 -17 -3 -18 -14 -8 -28 22 -43 100 -21
100 3 0 12 -16 20 -36z m2743 -1 c4 -14 -118 -18 -179 -6 -28 5 -30 7 -14 14
32 13 188 6 193 -8z m-4388 -68 c0 -13 5 -27 10 -30 6 -3 10 -32 10 -63 0 -52
-1 -55 -16 -40 -20 20 -35 176 -15 164 6 -4 11 -18 11 -31z m4638 -27 c8 -8 8
-17 1 -30 -7 -14 -7 -24 2 -34 11 -13 8 -14 -17 -8 -16 4 -32 9 -36 11 -13 7
-9 31 7 37 8 3 15 12 15 21 0 18 12 19 28 3z m-3890 -91 c27 -54 44 -134 40
-184 l-3 -38 -20 37 -19 38 -22 -38 c-34 -55 -54 -100 -74 -164 -12 -38 -30
-52 -30 -23 0 9 11 41 24 73 20 50 33 95 62 227 l7 30 10 -27 c6 -16 15 -28
20 -28 15 0 -3 52 -29 87 -29 38 -30 53 -6 53 12 0 26 -16 40 -43z m-168 -41
c6 -6 17 -2 30 9 22 20 26 9 8 -30 -8 -18 -17 -24 -29 -20 -20 7 -39 -20 -39
-57 0 -26 -35 -76 -45 -66 -9 9 22 149 44 203 l16 40 3 -35 c2 -19 7 -39 12
-44z m-252 38 c3 -23 -21 -49 -38 -39 -5 3 -10 20 -10 36 0 26 3 30 23 27 13
-2 23 -11 25 -24z m-5808 -3 c0 -4 -34 -23 -77 -42 -42 -18 -92 -44 -111 -56
-18 -13 -32 -18 -30 -11 5 14 75 68 128 97 36 21 90 28 90 12z m1023 -75 c21
-7 50 -22 65 -34 27 -21 27 -21 4 -21 -12 -1 -39 6 -59 14 -29 12 -43 13 -70
4 -18 -6 -38 -7 -45 -3 -7 5 -31 11 -52 14 -66 9 -56 29 16 33 35 2 72 4 83 5
11 1 37 -4 58 -12z m215 -38 c42 -23 71 -43 64 -46 -7 -2 -27 5 -44 16 -18 11
-46 23 -63 27 -32 7 -55 22 -55 36 0 17 22 9 98 -33z m9032 -28 c17 -22 38
-40 46 -40 17 0 19 31 2 48 -6 6 -8 15 -4 19 4 4 16 -3 26 -17 16 -21 20 -22
35 -10 30 25 35 -8 6 -41 -20 -22 -34 -29 -63 -29 -21 0 -41 6 -45 14 -4 7
-23 21 -40 30 -37 18 -37 19 -23 47 15 27 24 24 60 -21z m-10440 -11 c0 -6
-25 -36 -55 -67 -66 -69 -72 -55 -9 22 43 54 64 68 64 45z m1740 -97 c122 -49
234 -102 227 -108 -8 -8 -111 23 -186 57 -35 16 -71 29 -80 30 -24 1 -155 72
-159 86 -4 13 36 0 198 -65z m5364 -27 c-22 -34 -10 -44 19 -17 29 27 37 28
37 2 0 -14 -14 -27 -45 -42 -24 -12 -47 -19 -51 -16 -3 4 7 43 23 88 26 74 28
78 31 46 2 -21 -4 -46 -14 -61z m1281 -15 c-6 -10 -424 -219 -718 -360 -49
-24 -69 -22 -47 5 14 17 325 171 435 216 39 15 128 58 199 94 121 63 147 72
131 45z m2146 -27 c6 -16 21 -42 35 -60 13 -17 24 -38 24 -47 0 -8 5 -18 10
-21 6 -3 10 -10 10 -15 0 -7 -61 28 -77 44 -1 1 -9 30 -17 64 -14 63 -5 86 15
35z m-8785 -59 c63 -30 64 -52 1 -25 -23 10 -50 21 -60 25 -10 3 -15 10 -12
16 8 14 9 14 71 -16z m413 -43 c75 -33 195 -83 266 -111 72 -28 134 -56 139
-61 18 -16 -32 -10 -86 12 -29 11 -82 31 -118 44 -167 60 -337 130 -357 146
-14 12 -9 29 9 29 5 0 71 -27 147 -59z m-2431 -3 c-24 -43 -58 -69 -58 -45 0
22 59 99 71 92 5 -4 0 -23 -13 -47z m6583 -48 c-12 -28 -21 -70 -21 -99 0 -56
-8 -84 -21 -75 -14 8 -10 74 6 119 8 22 15 45 15 51 0 6 8 29 17 50 12 29 18
34 21 21 2 -10 -6 -40 -17 -67z m419 -49 c0 -16 -28 -32 -64 -38 -23 -3 -36
-2 -36 5 0 14 16 23 54 33 44 10 46 10 46 0z m-3887 -172 c50 -22 121 -51 157
-64 60 -22 167 -66 345 -143 39 -17 124 -51 190 -77 123 -48 155 -65 120 -65
-45 0 -144 37 -410 150 -49 22 -178 73 -285 115 -237 92 -290 116 -290 128 0
17 79 -3 173 -44z m4727 6 c-14 -17 -157 -100 -197 -116 l-28 -10 25 25 c14
14 61 45 105 70 83 47 118 59 95 31z m-1804 -62 c13 -29 24 -67 24 -83 0 -19
7 -33 21 -40 24 -13 86 -138 95 -190 3 -19 14 -63 25 -97 15 -48 18 -67 9 -83
-8 -16 -7 -25 5 -42 20 -29 19 -46 -4 -89 -21 -39 -18 -49 19 -66 24 -10 24
-11 5 -19 -11 -4 -31 -16 -44 -26 -28 -21 -52 -23 -98 -6 -36 13 -37 16 -48
136 -8 78 -20 112 -39 112 -9 0 -20 9 -26 20 -13 24 -45 202 -60 330 -5 52
-14 113 -20 135 -5 22 -7 41 -4 44 10 10 90 -88 103 -127 8 -24 18 -45 23 -48
14 -9 8 49 -12 106 -38 107 -18 133 26 33z m-208 -56 c7 -24 21 -56 33 -71 17
-21 24 -53 34 -144 7 -64 20 -144 28 -177 33 -130 31 -166 -15 -298 -10 -31
-17 -37 -33 -33 -11 3 -32 6 -48 6 -21 0 -30 7 -38 27 -13 36 3 575 18 580 6
2 9 12 8 21 -10 48 -14 142 -6 138 5 -3 13 -25 19 -49z m920 0 c6 -17 13 -68
17 -113 3 -45 12 -107 20 -140 14 -61 12 -74 -9 -74 -30 0 -86 337 -60 363 11
11 22 -2 32 -36z m-1067 -48 c5 -13 13 -43 19 -67 10 -38 13 -42 35 -36 20 5
25 1 31 -20 7 -30 -2 -60 -15 -51 -37 22 -39 -139 -3 -230 13 -34 17 -58 11
-75 -4 -14 -10 -51 -14 -82 -6 -53 -8 -58 -31 -58 -33 0 -64 -17 -64 -34 0 -8
-6 -16 -14 -19 -8 -3 -16 -21 -18 -39 l-3 -33 -42 41 c-28 27 -43 50 -43 66 0
14 -11 37 -24 51 -31 34 -40 93 -33 216 5 95 25 201 37 201 16 0 30 -87 21
-135 -16 -89 -24 -225 -13 -225 26 0 46 183 38 331 -7 119 0 219 15 219 5 0 8
-8 6 -17 -4 -34 18 -28 38 9 18 34 22 36 39 24 11 -7 23 -24 27 -37z m588
-117 c28 -121 43 -266 30 -300 -15 -39 -25 -14 -33 82 -4 43 -13 95 -21 115
-7 20 -16 53 -20 74 -7 44 3 129 15 122 5 -3 18 -45 29 -93z m1155 34 c-34
-26 -158 -94 -184 -101 -54 -15 34 52 115 88 78 35 107 40 69 13z m-780 -23
c6 -16 19 -38 29 -47 21 -21 21 -20 2 -56 -22 -42 -33 -37 -41 17 -4 26 -13
62 -20 79 -13 31 -9 47 10 41 5 -2 14 -17 20 -34z m456 -29 c0 -3 -20 -14 -45
-25 -24 -11 -47 -24 -50 -29 -3 -6 -16 -10 -28 -10 -19 0 -19 2 -7 14 35 34
130 70 130 50z m-719 -82 c4 -19 12 -39 18 -45 14 -14 14 -38 1 -73 l-11 -28
-25 25 c-14 14 -26 40 -28 59 -2 19 -7 50 -11 68 -8 32 -7 33 21 30 23 -2 30
-9 35 -36z m-2302 -3 c45 -17 81 -35 81 -40 0 -23 -36 -19 -106 12 -137 60
-117 82 25 28z m2521 -271 c-8 -28 -18 -40 -36 -44 -41 -11 -50 10 -15 35 30
21 31 26 31 92 0 69 -5 80 -28 57 -9 -9 -13 -7 -18 5 -10 28 4 63 31 75 14 6
26 17 26 24 1 7 6 -36 11 -97 6 -76 6 -122 -2 -147z m130 159 c0 -21 -6 -30
-20 -34 -11 -3 -20 -13 -20 -22 -1 -17 -23 -51 -34 -51 -4 0 -6 24 -4 53 2 42
6 51 19 49 11 -1 21 9 28 30 9 26 14 30 21 18 5 -8 10 -28 10 -43z m128 -53
c8 -27 16 -87 18 -134 l3 -85 -19 65 c-11 36 -19 82 -20 103 0 21 -7 51 -15
66 -14 28 -11 45 8 38 6 -2 17 -25 25 -53z m-354 -3 c8 -12 -17 -108 -32 -123
-8 -8 -14 -5 -21 16 -9 21 -6 35 11 71 22 45 32 53 42 36z m284 -18 c12 -30
42 -183 42 -214 0 -35 -20 -19 -26 21 -8 47 -30 72 -40 45 -4 -10 -2 -26 4
-35 11 -17 7 -30 -9 -30 -5 0 -11 17 -15 38 -3 20 -15 51 -25 68 -23 38 -24
54 -4 54 8 0 22 -14 31 -31 23 -45 42 -24 26 29 -22 71 -8 116 16 55z m-428
-78 c0 -20 -37 -38 -66 -31 -25 7 -33 31 -11 39 28 12 77 7 77 -8z m300 -169
c-5 -5 -10 -23 -10 -38 0 -30 -14 -38 -24 -12 -8 22 -8 129 1 138 4 4 16 -12
26 -35 12 -29 14 -46 7 -53z m-148 73 c37 -20 66 -137 38 -154 -6 -3 -7 -18
-4 -32 6 -23 5 -25 -27 -21 -32 3 -34 1 -31 -27 1 -17 -2 -37 -8 -45 -9 -13
-11 -13 -20 0 -13 20 -13 67 0 75 25 15 -13 35 -66 35 l-54 0 0 -44 c0 -88
-25 -104 -35 -23 -3 28 -9 66 -12 82 l-6 30 -8 -25 c-4 -14 -8 -59 -8 -100 -1
-81 -13 -119 -25 -78 -3 12 -9 67 -12 120 l-7 97 51 7 c29 3 57 13 63 20 21
26 75 17 103 -17 14 -17 26 -37 26 -45 0 -8 5 -14 10 -14 15 0 12 55 -6 100
-24 60 -9 84 38 59z m-1566 -100 c28 -26 32 -79 9 -119 -17 -30 -19 -98 -4
-137 9 -25 7 -31 -16 -50 -14 -13 -31 -23 -36 -23 -20 0 -90 76 -92 100 -3 34
14 243 20 254 10 16 94 -1 119 -25z m1149 -13 c39 -17 50 -34 60 -96 3 -25 14
-71 22 -103 9 -32 13 -60 9 -64 -3 -4 -20 6 -36 22 -16 16 -31 27 -32 24 -2
-2 -19 -34 -37 -71 -19 -38 -39 -68 -43 -68 -4 0 -8 42 -9 93 0 50 -4 130 -8
177 -4 47 -6 88 -4 93 6 11 40 8 78 -7z m-962 -31 c25 -11 50 -62 39 -81 -5
-9 -7 -60 -4 -114 4 -96 4 -98 -21 -115 -16 -10 -41 -15 -69 -13 -38 3 -45 7
-60 38 -14 30 -16 53 -9 164 5 82 13 131 20 136 12 7 71 -1 104 -15z m850 -93
c17 -82 18 -98 6 -134 -28 -87 -112 -137 -175 -106 l-28 13 2 120 c1 66 -2
137 -7 157 -5 20 -6 40 -3 43 3 3 46 4 96 3 l90 -3 19 -93z m-414 72 c31 -12
50 -13 92 -6 29 6 58 8 65 5 18 -7 23 -74 14 -171 -13 -138 -36 -174 -72 -112
-24 42 -48 40 -48 -4 0 -39 -11 -46 -64 -37 l-39 6 2 92 c1 50 -3 119 -9 153
-17 93 -10 102 59 74z m1121 -36 c21 -23 27 -58 10 -58 -12 0 -60 48 -60 60 0
9 12 20 21 20 5 0 17 -10 29 -22z m-292 -47 c12 -27 22 -54 22 -61 0 -8 9 -10
26 -6 22 6 25 4 22 -16 -2 -18 -10 -24 -35 -26 -60 -6 -73 10 -73 88 0 39 3
70 8 70 4 0 17 -22 30 -49z m582 -58 c45 -24 66 -31 69 -22 2 7 -8 22 -23 34
-58 46 -21 47 65 1 57 -30 67 -32 83 -20 16 11 24 11 55 -2 20 -9 104 -41 186
-72 83 -30 166 -66 185 -79 19 -13 40 -23 47 -23 22 0 275 -109 316 -136 20
-13 51 -27 68 -31 20 -4 34 -14 40 -31 8 -20 14 -23 37 -18 53 13 57 12 60
-16 3 -29 32 -40 32 -13 0 23 33 18 158 -25 137 -48 212 -80 212 -92 0 -12
-68 -10 -75 2 -7 12 -25 13 -25 2 0 -5 24 -21 53 -35 60 -31 107 -36 107 -11
0 22 76 14 150 -14 104 -41 110 -80 5 -43 -35 13 -70 21 -77 19 -19 -7 23 -27
90 -44 51 -14 60 -13 94 2 35 16 39 16 63 0 25 -16 35 -46 15 -46 -5 0 -10 -4
-10 -10 0 -18 26 -11 49 14 l22 23 92 -32 c170 -61 211 -81 220 -109 12 -35
101 -79 153 -74 l39 4 -35 15 c-19 9 -44 20 -55 25 -17 7 -15 9 14 12 18 2 38
-1 44 -7 6 -6 23 -11 37 -11 14 0 35 -7 46 -14 39 -28 393 -110 647 -151 216
-34 386 -47 668 -49 296 -2 296 -2 311 -100 2 -11 9 -21 17 -24 11 -4 13 4 8
41 -9 62 8 65 80 14 32 -23 80 -53 108 -67 66 -33 104 -91 129 -198 l19 -82
-20 -23 c-27 -28 -55 -97 -48 -115 8 -21 -13 -52 -35 -52 -21 0 -27 24 -10 35
6 3 10 34 10 68 0 69 -15 68 -23 -3 -13 -106 -25 -128 -54 -99 -9 9 -11 -10
-11 -72 1 -46 -2 -110 -7 -142 l-8 -58 -30 7 c-25 5 -29 4 -24 -11 7 -17 -8
-55 -27 -67 -6 -4 -21 -8 -33 -8 -19 0 -23 -6 -23 -31 0 -24 -3 -30 -16 -25
-9 3 -24 6 -34 6 -11 0 -32 19 -51 48 -40 59 -38 56 -44 50 -3 -2 11 -36 30
-74 40 -79 43 -94 16 -94 -20 0 -31 18 -31 52 0 32 -131 191 -146 176 -3 -3 9
-22 25 -41 24 -27 30 -41 26 -63 -4 -21 4 -50 29 -101 37 -77 55 -143 39 -143
-6 0 -17 18 -26 41 -16 41 -37 46 -37 9 0 -10 -5 -22 -10 -25 -6 -4 -8 -21 -4
-42 6 -34 6 -35 -16 -23 -21 11 -22 11 -16 -14 3 -14 9 -37 12 -51 5 -19 2
-26 -12 -31 -11 -3 -26 -9 -35 -14 -31 -16 -239 26 -239 48 0 10 8 13 28 9 15
-3 44 -8 65 -12 34 -7 37 -6 37 14 0 21 1 21 22 7 26 -18 38 -20 38 -6 0 12
-102 110 -114 110 -5 0 0 -10 12 -23 20 -21 29 -47 17 -47 -14 0 -81 55 -95
78 -11 17 -41 39 -78 55 -59 27 -61 29 -68 73 -8 59 0 98 31 138 30 40 31 53
5 61 -11 3 -20 11 -20 16 0 6 9 7 23 2 24 -8 54 -8 140 2 62 8 69 15 35 38
l-23 15 51 103 c36 73 72 126 119 179 42 47 62 76 54 79 -18 6 -154 -141 -190
-204 -56 -99 -49 -99 -201 -10 -73 42 -155 94 -183 115 -63 46 -95 63 -103 55
-8 -7 29 -38 73 -62 17 -9 50 -32 75 -53 61 -50 132 -97 209 -140 36 -19 66
-41 69 -48 6 -21 -191 82 -313 163 -125 83 -225 140 -225 130 0 -12 86 -76
260 -192 141 -93 140 -93 140 -108 0 -27 -8 -23 -220 115 -91 60 -197 125
-235 146 -163 87 -216 114 -220 114 -30 0 75 -75 175 -125 30 -15 125 -73 210
-129 85 -56 176 -114 202 -129 63 -37 72 -52 24 -44 -20 3 -58 21 -84 40 -55
40 -219 135 -349 201 -51 26 -109 61 -129 77 -20 16 -45 29 -55 29 -11 0 -19
4 -19 8 0 9 -60 46 -66 40 -3 -4 58 -50 171 -128 17 -12 57 -38 91 -58 82 -50
109 -70 102 -78 -4 -3 -36 12 -71 33 -36 21 -87 50 -114 65 -26 16 -97 59
-158 96 -60 38 -193 115 -295 171 -102 57 -192 109 -200 116 -19 16 -108 55
-126 55 -20 0 -17 -19 4 -27 9 -4 64 -33 122 -66 58 -33 119 -67 135 -75 66
-34 363 -207 415 -242 59 -41 107 -87 98 -95 -3 -3 -32 9 -64 26 -32 18 -88
47 -124 66 -36 19 -74 42 -85 52 -47 41 -440 253 -700 378 -99 47 -238 114
-310 148 -138 66 -214 99 -335 145 -41 16 -120 48 -175 73 -55 24 -201 83
-325 131 -124 48 -242 97 -262 107 -34 18 -113 47 -428 158 -155 55 -334 151
-280 151 5 0 45 -16 89 -35 150 -66 151 -49 1 29 -79 42 -153 85 -165 97 l-20
21 24 -7 c14 -4 61 -25 105 -46 44 -22 85 -39 92 -39 7 0 14 -5 16 -12 6 -16
57 -2 65 18 9 23 -4 29 -31 14 -23 -12 -33 -9 -102 26 -89 45 -108 69 -48 59
37 -6 38 -5 19 10 -11 9 -42 30 -70 47 -67 42 -42 48 30 7 31 -17 59 -29 62
-25 11 11 -31 48 -77 69 -90 39 -110 78 -22 43 31 -13 67 -27 80 -30 39 -13
24 11 -28 43 -52 32 -68 58 -27 45 12 -4 51 -22 87 -41z m-426 -176 c65 -35
116 -67 115 -72 -6 -15 -29 -7 -140 48 -64 32 -105 59 -107 70 -2 9 0 17 5 17
4 -1 61 -29 127 -63z m169 -19 c72 -38 96 -54 80 -56 -24 -4 -172 67 -192 92
-23 28 6 19 112 -36z m-1848 19 c40 -30 -12 -50 -54 -21 -18 13 -20 18 -10 25
20 13 43 11 64 -4z m-117 -38 c2 -12 -19 -24 -85 -46 -132 -46 -153 -55 -221
-96 -35 -21 -85 -45 -110 -54 -70 -23 -362 -147 -482 -204 -58 -27 -114 -49
-125 -49 -19 0 -19 0 0 19 19 18 118 63 355 161 63 26 160 69 215 95 55 25
138 62 185 82 47 19 102 46 122 60 42 28 106 53 128 50 8 -1 16 -9 18 -18z
m2491 -284 c13 -12 12 -15 -2 -20 -16 -7 -83 20 -94 38 -9 15 79 -1 96 -18z
m85 -144 c3 -4 32 -18 65 -30 33 -12 70 -30 83 -41 22 -19 22 -19 2 -20 -26 0
-184 76 -184 90 0 12 27 14 34 1z m-5329 -57 c-33 -14 -71 -29 -85 -34 -14 -4
-42 -15 -64 -25 -37 -16 -59 -14 -40 4 19 19 181 79 214 80 33 0 32 -1 -25
-25z m5821 -23 c5 -4 30 -16 57 -26 43 -16 63 -35 36 -35 -19 0 -129 52 -129
61 0 12 23 12 36 0z m-4317 -35 c-15 -12 -66 -39 -115 -58 -49 -20 -137 -59
-196 -87 -59 -28 -114 -51 -122 -51 -15 0 -303 -114 -431 -170 -81 -36 -125
-50 -125 -40 0 16 122 77 270 135 80 31 204 81 275 112 72 30 153 63 180 73
28 10 95 38 150 63 55 25 109 46 120 46 18 0 18 -2 -6 -23z m4553 -65 c35 -16
80 -32 100 -36 20 -4 44 -16 54 -26 16 -18 16 -19 -17 -19 -19 0 -47 9 -64 20
-16 11 -37 20 -45 20 -24 0 -120 48 -120 60 0 17 23 12 92 -19z m-6688 -71
c-19 -19 -320 -108 -330 -97 -12 12 8 24 68 41 92 27 160 47 183 57 29 11 91
11 79 -1z m7180 -138 c46 -16 77 -44 64 -57 -7 -7 -128 57 -128 68 0 10 9 9
64 -11z m-7888 -11 c-12 -19 -299 -45 -328 -30 -26 14 -13 26 32 32 71 8 301
7 296 -2z m-402 -33 c10 -14 16 -44 16 -83 0 -59 1 -60 38 -80 20 -11 41 -30
47 -43 8 -18 17 -22 48 -20 34 2 43 -3 77 -43 52 -58 56 -79 38 -168 l-16 -75
73 -68 c115 -107 131 -171 96 -367 -6 -30 -18 -63 -28 -72 -10 -9 -47 -24 -83
-33 -200 -48 -240 -59 -240 -69 0 -11 116 -2 156 13 37 14 84 12 84 -3 0 -7
-17 -22 -37 -32 -38 -19 -38 -19 -11 -23 15 -2 38 4 50 12 12 9 39 16 60 16
29 0 41 -6 54 -26 15 -22 15 -27 3 -39 -26 -26 -214 -85 -291 -91 -84 -7 -108
5 -108 55 0 16 -9 36 -21 47 -28 25 -49 67 -49 98 0 20 -8 29 -36 41 -24 10
-34 20 -31 29 3 8 0 19 -7 25 -17 14 -38 86 -39 134 -1 44 13 62 75 93 26 13
48 29 48 34 0 12 -38 -2 -96 -36 -47 -28 -66 -26 -108 7 -51 40 -34 50 157
101 44 11 50 11 62 -5 15 -21 25 -21 60 -3 15 8 33 12 41 9 7 -2 19 -1 26 3 9
6 0 12 -26 19 l-39 11 79 28 c43 16 90 35 102 43 23 14 23 15 6 34 -26 28 -60
24 -80 -10 -10 -17 -21 -28 -26 -25 -5 3 -6 10 -3 15 13 20 -35 7 -52 -14 -26
-34 -57 -48 -124 -57 -32 -5 -87 -20 -123 -34 -35 -14 -78 -26 -96 -26 -27 0
-33 5 -51 47 -11 26 -29 81 -41 123 -36 130 -42 145 -66 148 -26 4 -52 38 -52
68 0 16 17 32 68 61 133 78 178 109 270 180 52 40 102 73 112 73 10 0 26 -10
34 -22z m2187 -136 c-13 -9 -171 -92 -350 -183 -331 -169 -435 -227 -573 -318
-43 -28 -78 -47 -78 -41 0 22 199 161 340 238 186 101 637 321 660 321 l25 0
-24 -17z m6820 -163 c112 -56 177 -94 166 -97 -10 -2 -57 19 -105 46 -48 27
-116 62 -152 78 -66 28 -140 70 -140 79 0 8 45 -12 231 -106z m308 -161 c40
-24 96 -68 86 -68 -13 0 -145 74 -145 82 0 14 21 9 59 -14z m661 -310 c41 -27
119 -71 172 -96 68 -33 98 -52 98 -64 0 -19 -34 -25 -45 -8 -3 5 -54 34 -113
65 -59 30 -134 76 -167 100 -112 84 -71 86 55 3z m176 -25 c107 -52 116 -58
86 -61 -36 -4 -156 50 -207 93 -49 41 -8 30 121 -32z m-247 -109 c83 -91 93
-123 18 -59 -37 32 -43 34 -54 19 -6 -9 -16 -13 -22 -9 -14 8 -14 45 -1 45 17
0 11 26 -10 45 -11 10 -20 22 -20 27 0 17 38 -12 89 -68z m72 -170 c38 -40
125 -94 152 -94 23 0 68 -30 62 -41 -8 -12 -92 16 -147 51 -27 16 -52 30 -55
30 -3 0 -2 -16 1 -35 8 -41 -2 -44 -34 -10 -22 23 -22 26 -7 43 15 17 15 21
-9 55 -33 49 -10 49 37 1z m247 -58 c42 0 52 -3 50 -15 -2 -9 -15 -20 -29 -25
-41 -14 -189 59 -173 86 3 5 27 -3 52 -19 35 -20 60 -27 100 -27z m-9773 -141
c0 -5 -20 -13 -44 -17 -52 -9 -68 -21 -86 -65 -15 -35 -32 -43 -41 -18 -12 30
6 65 39 79 82 35 132 43 132 21z m9742 -9 c30 -25 102 -66 117 -66 4 0 1 12
-9 26 -23 36 -7 50 36 31 19 -8 43 -24 53 -36 l19 -21 -41 0 c-23 0 -42 -4
-42 -10 0 -5 8 -10 18 -10 23 0 62 -28 62 -43 0 -7 -12 -20 -26 -31 -25 -18
-27 -18 -65 -1 -53 24 -66 41 -40 50 31 9 26 23 -15 40 -47 19 -92 52 -104 76
-15 26 2 24 37 -5z m-69 -31 c28 -26 33 -35 19 -35 -40 0 -98 46 -80 64 12 11
23 6 61 -29z m-9918 -70 c0 -8 10 -20 22 -26 l22 -12 -25 -20 -24 -19 -3 21
c-2 11 -13 28 -25 36 -19 13 -20 17 -7 25 22 14 40 12 40 -5z"/>
<path d="M8002 5825 c0 -87 3 -132 8 -120 11 25 11 201 0 235 -5 15 -8 -30 -8
-115z"/>
<path d="M7937 5923 c-10 -9 -7 -204 3 -228 5 -13 9 27 9 108 1 70 0 127 -2
127 -2 0 -7 -3 -10 -7z"/>
<path d="M8066 5908 c-9 -37 -7 -192 4 -208 7 -10 10 25 10 108 0 67 -2 122
-4 122 -2 0 -6 -10 -10 -22z"/>
<path d="M6920 5290 c0 -19 41 -98 61 -116 19 -17 19 -17 5 23 -21 58 -45 103
-56 103 -6 0 -10 -5 -10 -10z"/>
<path d="M11275 5310 c4 -36 9 -73 11 -82 9 -29 26 -20 20 10 -3 15 -8 45 -12
67 -12 71 -25 75 -19 5z"/>
<path d="M10675 5006 c-71 -29 -150 -63 -174 -76 -52 -26 -151 -91 -151 -97 0
-11 58 10 91 33 20 14 104 54 185 90 82 36 158 74 169 85 11 10 17 19 15 18
-3 0 -63 -24 -135 -53z"/>
<path d="M10395 4794 c-27 -13 -54 -24 -60 -24 -16 -1 -49 -29 -42 -37 8 -7
157 67 157 79 0 10 5 11 -55 -18z"/>
<path d="M8700 3937 c-52 -30 -135 -75 -184 -101 -132 -70 -176 -97 -176 -108
0 -5 4 -8 8 -6 40 15 482 255 482 261 0 18 -42 3 -130 -46z"/>
<path d="M2635 4928 c7 -24 16 -55 19 -70 7 -33 26 -38 26 -7 0 26 -40 119
-51 119 -4 0 -2 -19 6 -42z"/>
<path d="M2542 4923 c25 -57 62 -109 66 -92 2 10 -11 40 -28 68 -34 54 -58 69
-38 24z"/>
<path d="M2214 4643 c28 -55 62 -76 126 -81 40 -3 60 -1 60 7 0 6 -11 11 -24
11 -37 0 -67 14 -115 54 -51 43 -67 46 -47 9z"/>
<path d="M2768 4408 c7 -7 12 -20 12 -31 0 -13 5 -17 18 -13 22 7 131 -20 152
-38 8 -8 47 -25 85 -39 39 -14 117 -43 173 -65 116 -45 168 -60 158 -44 -11
18 -178 92 -207 92 -10 0 -94 34 -187 75 -158 70 -235 94 -204 63z"/>
<path d="M4830 3955 c0 -9 76 -42 157 -69 45 -15 87 -34 93 -42 15 -17 30 -18
30 -1 -1 13 -64 57 -83 57 -15 0 -146 46 -154 54 -7 7 -43 8 -43 1z"/>
<path d="M8350 4983 c0 -57 4 -105 10 -108 13 -8 13 175 0 195 -7 10 -10 -17
-10 -87z"/>
<path d="M1365 4630 c-3 -5 -14 -10 -23 -10 -20 0 -127 -49 -121 -55 5 -5 75
18 85 28 3 3 39 11 80 18 41 6 74 16 74 20 0 12 -87 11 -95 -1z"/>
<path d="M876 4278 c-62 -69 -78 -113 -22 -59 43 42 100 121 87 121 -5 0 -34
-28 -65 -62z"/>
<path d="M490 4123 c0 -37 22 -98 69 -191 63 -125 172 -212 266 -211 l40 0
-28 24 c-15 14 -35 25 -43 25 -44 0 -186 110 -218 168 -41 75 -66 139 -66 172
0 16 -4 32 -10 35 -6 4 -10 -6 -10 -22z"/>
<path d="M12201 3900 c-24 -11 -47 -20 -52 -20 -5 0 -26 -7 -47 -15 -26 -12
-33 -18 -23 -24 31 -20 191 39 191 71 0 13 -21 9 -69 -12z"/>
<path d="M9580 1782 c0 -15 36 -42 68 -52 45 -12 50 6 8 27 -20 9 -36 20 -36
25 0 4 -9 8 -20 8 -11 0 -20 -4 -20 -8z"/>
<path d="M10065 1700 c10 -11 25 -20 34 -20 9 0 30 -9 46 -20 25 -17 172 -91
275 -139 14 -6 40 -23 59 -36 34 -25 61 -32 61 -17 0 5 -21 21 -47 36 -100 56
-120 66 -136 66 -7 0 -31 14 -54 30 -22 17 -58 36 -79 44 -22 7 -68 28 -103
45 -76 37 -80 37 -56 11z"/>
<path d="M11790 1378 c0 -19 32 -48 53 -48 10 0 26 -6 37 -12 15 -10 22 -10
32 0 19 19 -3 46 -43 54 -19 3 -44 9 -56 13 -17 5 -23 3 -23 -7z"/>
<path d="M12117 1239 c-16 -9 -14 -13 18 -35 20 -13 40 -24 45 -24 17 0 11 29
-10 50 -23 23 -28 24 -53 9z"/>
<path d="M11839 937 c-15 -12 -40 -30 -58 -39 -20 -11 -31 -25 -31 -39 0 -18
4 -20 28 -15 15 4 32 14 37 23 6 8 20 31 33 50 28 43 25 48 -9 20z"/>
<path d="M1093 1543 c-7 -2 -13 -18 -13 -33 0 -26 -29 -60 -52 -60 -17 0 -7
28 15 38 20 10 21 11 2 11 -31 1 -85 -36 -85 -59 0 -15 -7 -20 -28 -20 -17 0
-37 -9 -48 -21 -10 -12 -31 -28 -47 -35 -15 -8 -25 -19 -22 -24 9 -15 41 -12
55 5 7 8 31 20 54 26 60 16 207 101 219 126 18 40 -7 64 -50 46z"/>
<path d="M1453 786 c-45 -17 -51 -26 -16 -26 32 0 92 17 108 31 13 13 -54 9
-92 -5z"/>
<path d="M1388 697 c-27 -6 -48 -14 -48 -18 0 -17 41 -19 81 -3 85 33 68 43
-33 21z"/>
<path d="M1357 475 c-64 -14 -91 -30 -65 -40 17 -7 157 31 173 46 13 12 -37
10 -108 -6z"/>
<path d="M7721 9870 c-1 -19 56 -110 68 -110 6 0 6 11 0 28 -12 36 -68 103
-68 82z"/>
<path d="M7670 9841 c0 -14 119 -224 137 -241 14 -13 14 -12 8 10 -12 38 -92
192 -114 218 -20 23 -31 28 -31 13z"/>
<path d="M7950 9710 c0 -5 17 -49 39 -97 21 -48 46 -113 56 -143 22 -66 31
-52 15 22 -17 83 -110 266 -110 218z"/>
<path d="M7636 9641 c-4 -6 9 -48 29 -94 20 -45 39 -92 42 -104 3 -12 14 -30
24 -39 18 -16 19 -16 19 13 0 16 -20 70 -44 119 -55 110 -61 120 -70 105z"/>
<path d="M7430 9578 c0 -15 5 -30 10 -33 6 -3 10 -15 10 -25 0 -24 21 -70 32
-70 13 0 9 24 -14 81 -27 67 -38 81 -38 47z"/>
<path d="M7730 9582 c0 -4 4 -12 9 -17 5 -6 14 -26 20 -45 6 -19 21 -46 32
-60 l20 -25 -6 25 c-17 65 -75 160 -75 122z"/>
<path d="M7538 9539 c-3 -8 0 -26 8 -40 7 -13 13 -37 14 -52 0 -15 7 -30 15
-34 26 -9 27 2 6 48 -10 24 -23 55 -28 68 -7 18 -11 21 -15 10z"/>
<path d="M8268 9525 c-8 -8 16 -93 30 -107 16 -16 16 21 1 75 -9 34 -19 44
-31 32z"/>
<path d="M4394 9455 c-18 -32 -26 -83 -16 -101 9 -16 11 -15 21 5 7 12 11 43
9 69 -3 41 -4 44 -14 27z"/>
<path d="M8196 9420 c-4 -16 0 -51 14 -95 20 -68 20 -68 14 -20 -3 28 -9 70
-13 95 -7 40 -8 42 -15 20z"/>
<path d="M7815 9373 c4 -15 14 -53 23 -83 14 -47 17 -51 20 -27 2 15 -4 50
-13 77 -18 55 -40 79 -30 33z"/>
<path d="M7746 9340 c14 -86 82 -327 83 -290 1 54 -57 302 -74 320 -14 14 -15
11 -9 -30z"/>
<path d="M8085 9313 c8 -54 19 -73 36 -56 8 8 5 24 -9 57 -12 25 -24 46 -28
46 -3 0 -3 -21 1 -47z"/>
<path d="M4693 9273 c-31 -6 -29 -23 3 -23 14 0 34 -5 45 -11 12 -6 28 -8 36
-5 14 6 14 9 -2 26 -18 19 -35 22 -82 13z"/>
<path d="M7870 9163 c0 -65 20 -147 33 -134 7 7 7 30 -2 78 -15 87 -31 114
-31 56z"/>
<path d="M8243 9143 c7 -62 22 -132 32 -141 8 -7 0 102 -12 158 -9 49 -25 35
-20 -17z"/>
<path d="M7734 9118 c3 -13 10 -48 16 -78 6 -30 15 -72 21 -93 13 -48 33 -39
24 12 -12 66 -48 181 -57 181 -4 0 -6 -10 -4 -22z"/>
<path d="M4258 9044 c-17 -17 -6 -25 26 -19 20 4 36 2 40 -4 4 -6 21 -11 37
-11 17 0 39 -5 51 -11 28 -15 70 -3 66 19 -3 14 -15 17 -63 18 -33 1 -80 4
-105 9 -25 4 -48 3 -52 -1z"/>
<path d="M7903 8929 c3 -49 13 -91 26 -115 l20 -39 0 35 c0 53 -24 170 -39
183 -10 10 -11 -3 -7 -64z"/>
<path d="M8395 8958 c4 -18 10 -50 14 -71 8 -48 25 -52 29 -7 5 48 -15 110
-35 110 -12 0 -14 -6 -8 -32z"/>
<path d="M7692 8936 c3 -24 13 -58 22 -76 9 -18 16 -42 16 -54 0 -11 12 -56
27 -99 18 -54 29 -75 37 -67 7 7 3 31 -12 77 -11 38 -28 99 -36 136 -16 66
-40 127 -53 127 -3 0 -3 -20 -1 -44z"/>
<path d="M4215 8888 c4 -13 6 -33 6 -45 -1 -21 23 -38 40 -27 13 8 11 31 -6
64 -19 36 -51 42 -40 8z"/>
<path d="M7800 8850 c0 -16 9 -58 19 -92 41 -134 51 -171 51 -187 0 -34 22
-94 30 -82 8 15 2 50 -40 206 -16 61 -32 127 -35 148 -7 44 -25 50 -25 7z"/>
<path d="M7913 8678 c3 -13 11 -41 17 -63 24 -85 29 -114 39 -229 6 -65 13
-122 17 -125 3 -3 4 55 2 129 -4 114 -9 146 -31 206 -15 39 -27 79 -27 88 0 9
-5 16 -11 16 -7 0 -9 -9 -6 -22z"/>
<path d="M7820 8493 c0 -31 21 -93 30 -93 13 0 12 26 -1 73 -10 38 -29 51 -29
20z"/>
<path d="M4020 8355 c-11 -13 -9 -20 11 -41 29 -31 56 -47 63 -36 8 13 -32 92
-47 92 -8 0 -20 -7 -27 -15z"/>
<path d="M3928 8258 c-2 -19 -2 -84 0 -146 4 -110 5 -112 28 -112 13 0 24 -4
24 -10 0 -5 7 -10 15 -10 17 0 35 30 35 60 0 16 -4 19 -23 15 -15 -4 -28 -1
-36 9 -16 20 -6 50 14 42 20 -7 29 12 14 30 -7 8 -13 44 -13 82 -1 65 -2 67
-27 70 -24 3 -27 -1 -31 -30z"/>
<path d="M8576 8112 c-13 -21 -17 -91 -7 -111 20 -37 30 -23 29 44 0 60 -9 87
-22 67z"/>
<path d="M7943 8068 c4 -24 9 -83 13 -131 5 -75 9 -87 20 -75 11 11 12 26 4
73 -5 33 -10 86 -10 118 0 46 -3 57 -16 57 -13 0 -15 -8 -11 -42z"/>
<path d="M7884 7892 c0 -141 -5 -205 -18 -262 -9 -41 -20 -90 -23 -108 -3 -18
-9 -35 -14 -38 -5 -3 -9 -16 -9 -30 0 -13 -4 -24 -10 -24 -5 0 -10 -9 -10 -19
0 -26 -10 -51 -21 -51 -14 0 -11 38 8 97 12 37 14 56 6 64 -11 11 -20 -7 -48
-108 -25 -86 -9 -213 26 -213 6 0 6 7 -1 19 -13 25 -13 74 0 66 6 -3 10 -15
10 -26 0 -11 5 -17 10 -14 6 3 10 26 10 50 0 25 12 72 31 116 59 142 89 299
89 472 0 76 -15 176 -28 189 -4 4 -7 -77 -8 -180z"/>
<path d="M3656 7928 c-9 -35 -7 -176 3 -182 4 -3 11 23 15 57 3 34 9 81 12
105 5 34 4 42 -9 42 -8 0 -17 -10 -21 -22z"/>
<path d="M3978 7911 c-37 -34 -30 -53 15 -44 47 9 74 73 32 73 -8 0 -29 -13
-47 -29z"/>
<path d="M7446 7870 c4 -41 8 -167 9 -280 2 -225 3 -237 15 -200 22 68 4 521
-21 545 -8 7 -9 -10 -3 -65z"/>
<path d="M7827 7900 c-8 -33 -28 -333 -22 -339 11 -10 18 13 32 115 10 78 12
127 6 178 -7 52 -11 64 -16 46z"/>
<path d="M7606 7884 c-9 -24 -6 -256 4 -279 5 -12 9 40 9 138 1 86 -1 157 -3
157 -2 0 -7 -7 -10 -16z"/>
<path d="M7951 7753 c-7 -37 -15 -86 -18 -108 -5 -37 -4 -39 12 -24 22 21 44
174 28 190 -7 7 -14 -10 -22 -58z"/>
<path d="M7762 7770 c-1 -20 -9 -62 -17 -93 -8 -32 -15 -72 -15 -90 0 -18 -14
-70 -30 -117 -29 -82 -41 -155 -20 -119 21 36 69 194 80 262 6 40 10 99 8 132
-2 33 -5 44 -6 25z"/>
<path d="M7324 7700 c3 -41 8 -141 12 -222 3 -82 10 -148 15 -148 21 0 2 392
-21 428 -8 13 -10 -2 -6 -58z"/>
<path d="M7273 7608 c4 -24 9 -88 13 -143 7 -114 23 -162 24 -73 0 85 -21 258
-33 258 -5 0 -7 -18 -4 -42z"/>
<path d="M7586 7534 c-10 -26 -7 -139 3 -128 14 14 26 144 13 144 -5 0 -13 -7
-16 -16z"/>
<path d="M5230 7525 c0 -8 4 -23 9 -33 6 -9 12 -33 16 -53 3 -20 32 -89 64
-155 32 -65 61 -130 66 -143 5 -16 10 -20 18 -12 7 7 -3 37 -36 101 -26 50
-47 95 -47 101 0 6 -11 35 -25 65 -14 30 -25 61 -25 68 0 7 -5 27 -11 45 -11
32 -29 42 -29 16z"/>
<path d="M8032 7485 c-37 -53 -57 -105 -33 -91 21 13 83 116 79 132 -2 14 -14
3 -46 -41z"/>
<path d="M4460 7463 c0 -47 21 -157 31 -168 10 -10 9 13 -7 142 -6 49 -24 68
-24 26z"/>
<path d="M4310 7451 c0 -36 31 -111 38 -92 6 19 -17 121 -29 121 -5 0 -9 -13
-9 -29z"/>
<path d="M7166 7464 c-9 -23 -6 -105 4 -129 6 -13 9 7 9 63 1 82 -2 96 -13 66z"/>
<path d="M5405 7440 c4 -19 40 -105 79 -190 40 -85 83 -189 96 -230 39 -132
38 -130 39 -75 1 60 -23 135 -82 259 -24 50 -57 119 -73 154 -15 34 -36 75
-47 90 l-18 27 6 -35z"/>
<path d="M6616 7378 c-5 -32 -4 -69 1 -85 l10 -28 6 35 c4 19 3 58 -2 85 l-8
50 -7 -57z"/>
<path d="M7626 7358 c-3 -29 -2 -69 3 -88 7 -29 9 -19 10 53 1 48 -1 87 -3 87
-2 0 -6 -24 -10 -52z"/>
<path d="M5390 7309 c0 -19 62 -171 82 -201 8 -12 18 -41 22 -63 7 -33 9 -37
18 -21 7 13 5 31 -7 64 -46 125 -115 258 -115 221z"/>
<path d="M4420 7271 c0 -11 12 -52 26 -93 14 -40 32 -93 39 -118 13 -43 13
-44 14 -13 2 56 -56 243 -74 243 -3 0 -5 -9 -5 -19z"/>
<path d="M5190 7255 c0 -19 36 -91 50 -100 18 -11 11 21 -16 69 -27 49 -34 55
-34 31z"/>
<path d="M7847 7241 c-3 -13 0 -37 8 -55 26 -61 47 -142 52 -203 6 -65 16 -80
27 -40 12 46 3 91 -46 227 -11 30 -24 64 -28 75 -6 18 -7 18 -13 -4z"/>
<path d="M5740 7194 c0 -11 16 -43 35 -73 19 -30 37 -71 41 -90 3 -20 10 -50
15 -67 6 -20 6 -48 -1 -78 -6 -30 -7 -53 -1 -64 14 -26 26 27 26 118 0 68 -4
83 -42 161 -45 91 -73 127 -73 93z"/>
<path d="M5300 7178 c0 -7 8 -27 19 -43 10 -17 23 -47 30 -68 7 -20 16 -37 21
-37 11 0 -10 65 -38 118 -23 43 -32 52 -32 30z"/>
<path d="M5670 7178 c0 -7 8 -25 17 -38 35 -50 64 -154 72 -255 9 -129 26 -88
19 48 -5 87 -17 128 -58 200 -5 9 -14 25 -18 34 -11 21 -32 29 -32 11z"/>
<path d="M5850 7155 c0 -17 44 -162 51 -169 20 -22 8 73 -16 122 -22 46 -35
63 -35 47z"/>
<path d="M6906 7152 c-4 -6 -2 -20 4 -31 5 -11 10 -33 10 -50 0 -17 5 -31 10
-31 15 0 12 83 -3 105 -10 12 -16 14 -21 7z"/>
<path d="M5410 7076 c0 -19 5 -38 10 -41 6 -3 10 -15 10 -25 0 -25 21 -70 32
-70 9 0 5 24 -20 113 -18 64 -32 74 -32 23z"/>
<path d="M4355 7091 c-3 -6 1 -21 9 -33 8 -13 20 -58 27 -101 13 -83 29 -112
29 -52 0 69 -49 211 -65 186z"/>
<path d="M7302 7089 c3 -8 33 -57 67 -108 33 -51 66 -112 72 -134 6 -23 15
-50 20 -59 5 -10 9 -25 9 -33 0 -8 5 -15 10 -15 34 0 -10 137 -75 235 -52 78
-114 147 -103 114z"/>
<path d="M5957 6943 c-4 -54 -11 -113 -16 -130 -12 -40 1 -43 19 -5 16 34 26
194 13 217 -7 12 -12 -11 -16 -82z"/>
<path d="M6590 6925 c0 -50 4 -85 10 -85 6 0 10 35 10 85 0 50 -4 85 -10 85
-6 0 -10 -35 -10 -85z"/>
<path d="M7298 7004 c-5 -4 3 -21 16 -38 26 -35 86 -150 86 -166 0 -19 -15
-10 -27 18 -29 63 -86 143 -96 133 -7 -7 -2 -19 15 -40 33 -39 71 -118 63
-131 -3 -5 -13 -10 -21 -10 -8 0 -14 -6 -14 -14 0 -30 -21 -26 -41 9 -12 20
-23 34 -25 32 -3 -2 6 -33 18 -68 21 -59 27 -66 72 -87 26 -13 50 -21 53 -18
3 3 -5 21 -17 40 -25 41 -21 43 35 16 25 -11 44 -15 50 -9 5 5 17 9 28 9 29 0
17 34 -15 38 -22 3 -28 10 -38 50 -22 87 -123 255 -142 236z"/>
<path d="M7440 7007 c0 -4 11 -30 25 -57 14 -27 25 -58 25 -69 0 -11 4 -22 9
-25 4 -3 11 -25 14 -48 3 -24 13 -59 21 -78 l15 -35 1 41 c0 48 -24 132 -55
194 -25 49 -54 90 -55 77z"/>
<path d="M6177 6966 c-4 -9 -2 -38 3 -65 13 -72 -10 -232 -44 -299 -28 -55
-28 -81 -1 -46 25 31 65 114 65 133 0 28 21 81 32 81 10 0 9 -19 -8 -144 -4
-34 -3 -47 5 -42 6 4 11 22 11 41 0 19 5 37 10 40 6 3 10 17 10 31 0 14 4 22
10 19 15 -9 12 -133 -5 -198 -18 -70 -18 -67 -1 -67 22 0 34 53 41 178 7 125
-2 305 -16 296 -5 -3 -9 -18 -9 -33 0 -19 -9 -34 -30 -49 l-30 -22 -4 22 c-3
13 -8 43 -11 68 -7 55 -19 79 -28 56z"/>
<path d="M6138 6960 c-3 -8 -9 -54 -13 -103 -3 -48 -13 -109 -20 -135 -20 -63
-20 -78 -1 -62 33 27 47 92 44 205 -2 61 -6 103 -10 95z"/>
<path d="M7590 6955 c0 -11 7 -38 15 -60 8 -22 14 -50 15 -63 0 -39 -24 -20
-40 31 -8 25 -21 52 -29 59 -15 14 -15 17 10 -72 6 -19 15 -57 20 -84 10 -49
44 -126 55 -126 3 0 3 26 -1 58 l-6 57 30 -52 c55 -93 67 -82 21 20 -16 37
-30 73 -30 80 0 19 -36 133 -49 155 -9 15 -10 15 -11 -3z"/>
<path d="M4180 6943 c0 -19 57 -140 71 -148 16 -11 3 44 -17 66 -8 8 -14 23
-14 31 0 18 -39 69 -40 51z"/>
<path d="M6028 6927 c-5 -10 -8 -35 -8 -55 -1 -20 -8 -55 -16 -77 -25 -65 -28
-79 -17 -72 21 13 54 127 51 175 -2 32 -5 41 -10 29z"/>
<path d="M4516 6870 c-4 -36 -6 -83 -4 -105 l4 -40 13 30 c16 36 17 97 4 145
-10 34 -10 34 -17 -30z"/>
<path d="M7673 6873 c6 -68 41 -167 69 -195 11 -11 21 -18 24 -16 2 3 -12 42
-31 89 -19 46 -38 105 -41 132 -10 69 -28 60 -21 -10z"/>
<path d="M7757 6853 c-7 -12 9 -94 27 -138 11 -27 21 -35 35 -33 11 2 31 -8
44 -21 33 -30 51 -19 43 25 -3 19 -8 51 -11 72 -13 90 -17 102 -26 97 -5 -4
-9 -17 -9 -30 0 -38 -18 -39 -34 0 -8 19 -18 35 -22 35 -8 0 0 -77 11 -102 4
-11 3 -18 -4 -18 -6 0 -11 7 -11 15 0 8 -4 15 -10 15 -5 0 -10 15 -10 33 0 34
-14 65 -23 50z"/>
<path d="M6358 6733 c-11 -61 -13 -102 -7 -107 12 -13 12 -69 -1 -82 -12 -12
-33 -161 -26 -180 9 -23 36 -16 48 14 14 32 24 452 11 452 -5 0 -16 -44 -25
-97z"/>
<path d="M6043 6748 c-37 -95 -37 -96 -18 -73 31 37 73 145 57 145 -6 0 -23
-33 -39 -72z"/>
<path d="M4020 6783 c0 -26 11 -38 48 -57 44 -23 48 -39 23 -81 -25 -43 -27
-87 -6 -105 23 -19 40 1 25 29 -10 19 -7 27 19 57 17 19 31 39 31 45 0 23 -22
49 -60 70 -22 12 -42 31 -46 41 -7 23 -34 24 -34 1z"/>
<path d="M5225 6750 c-10 -11 -26 -20 -35 -20 -9 0 -25 -6 -36 -14 -33 -25 1
-46 91 -57 85 -11 87 -10 160 54 50 44 40 58 -20 26 -37 -19 -47 -21 -54 -11
-7 11 -16 10 -50 -7 -23 -12 -53 -26 -66 -31 -39 -15 -30 6 15 36 22 15 40 31
40 35 0 16 -27 9 -45 -11z"/>
<path d="M6773 6607 c5 -47 20 -77 33 -64 10 10 -5 71 -22 93 -14 18 -15 16
-11 -29z"/>
<path d="M4915 6620 c-22 -5 -69 -13 -104 -19 -35 -7 -82 -21 -104 -31 -23
-11 -47 -20 -54 -20 -36 0 -203 -113 -189 -128 2 -2 33 15 68 37 131 82 269
126 451 142 67 5 126 14 132 20 11 11 -141 10 -200 -1z"/>
<path d="M5910 5200 c0 -23 -4 -30 -20 -30 -15 0 -20 -7 -20 -25 0 -38 27 -31
45 11 17 42 20 74 5 74 -5 0 -10 -13 -10 -30z"/>
<path d="M3982 5151 c3 -45 12 -81 26 -103 11 -18 25 -52 31 -75 10 -38 15
-43 41 -43 16 0 36 -8 45 -17 13 -12 21 -14 33 -7 27 17 25 33 -5 39 -65 13
-75 20 -88 58 -7 21 -25 55 -39 76 -20 28 -26 49 -26 89 0 32 -4 52 -11 52 -8
0 -10 -21 -7 -69z"/>
<path d="M5692 4833 c-17 -30 -37 -166 -28 -188 13 -34 26 0 37 94 11 101 9
128 -9 94z"/>
<path d="M4117 4824 c-3 -4 6 -29 20 -57 14 -28 31 -69 37 -92 10 -35 19 -44
75 -72 47 -24 77 -33 114 -33 58 0 160 37 225 82 58 40 102 57 189 74 41 7 83
19 94 24 23 13 26 35 3 26 -8 -3 -45 -10 -82 -16 -86 -13 -75 -9 -302 -128
-57 -30 -72 -33 -121 -29 -75 7 -157 48 -165 85 -13 58 -26 92 -45 116 -21 26
-31 31 -42 20z"/>
<path d="M5239 4750 c-21 -22 -45 -40 -54 -40 -9 0 -14 -4 -11 -9 9 -14 137
-34 148 -23 7 7 2 13 -12 17 -30 9 -20 29 17 33 26 3 32 -1 35 -20 2 -18 10
-24 36 -26 26 -3 32 -7 32 -28 0 -17 6 -24 19 -24 11 0 23 -5 26 -11 10 -16
-4 -59 -19 -59 -18 0 -10 -199 9 -218 50 -54 127 141 80 204 -20 27 -19 34 10
34 31 0 35 35 5 43 -13 3 -20 14 -20 30 0 35 -16 43 -24 12 -8 -32 -27 -24
-55 25 -11 21 -37 52 -56 69 -29 25 -45 31 -82 31 -41 0 -50 -5 -84 -40z"/>
<path d="M5733 4768 c-16 -20 -24 -78 -16 -117 l6 -36 19 60 c26 87 22 132 -9
93z"/>
<path d="M5131 4651 c-16 -10 -6 -31 14 -31 16 0 119 -75 149 -109 21 -23 56
-28 56 -8 -1 6 -23 42 -49 78 -38 51 -57 68 -81 73 -44 8 -72 7 -89 -3z"/>
<path d="M5330 4602 c0 -11 15 -38 33 -60 17 -22 37 -48 43 -58 7 -11 15 -16
19 -12 4 4 2 15 -6 24 -7 9 -25 39 -39 67 -27 54 -50 72 -50 39z"/>
<path d="M5070 4600 c0 -6 -12 -15 -27 -21 l-28 -11 37 -14 c21 -7 59 -29 84
-48 26 -20 51 -36 55 -36 13 0 11 24 -3 38 -8 8 -8 15 2 27 9 11 10 18 1 29
-27 33 -121 60 -121 36z"/>
<path d="M5587 4488 c-22 -100 -29 -161 -21 -182 10 -25 53 125 53 184 1 78
-14 77 -32 -2z"/>
<path d="M4970 4526 c0 -9 17 -18 43 -24 23 -6 53 -14 66 -18 47 -14 16 19
-35 37 -61 22 -74 23 -74 5z"/>
<path d="M4891 4357 c-6 -8 -8 -17 -4 -20 10 -11 61 -8 68 3 11 17 48 11 72
-12 18 -16 23 -18 23 -6 0 8 -8 22 -18 31 -23 21 -124 24 -141 4z"/>
<path d="M4771 4312 c-22 -16 20 -32 83 -32 51 0 78 11 57 24 -18 11 -126 17
-140 8z"/>
<path d="M5481 4247 c-13 -34 -14 -67 -2 -86 11 -17 17 -6 25 44 8 52 -8 81
-23 42z"/>
<path d="M5545 4208 c-2 -13 -16 -72 -29 -132 -29 -126 -21 -173 12 -74 17 53
42 180 42 217 0 20 -20 11 -25 -11z"/>
<path d="M5387 4000 c-13 -57 -15 -115 -5 -133 8 -16 12 -17 19 -6 11 17 10
117 -1 144 -7 19 -8 18 -13 -5z"/>
<path d="M5604 3933 c-3 -16 -10 -38 -15 -51 -11 -29 -12 -62 0 -62 8 0 41
103 41 128 0 24 -20 11 -26 -15z"/>
<path d="M5789 3829 c-21 -11 -43 -64 -35 -84 8 -21 26 -10 26 16 0 10 5 19
10 19 6 0 10 -7 10 -15 0 -8 5 -15 10 -15 12 0 14 77 2 84 -4 2 -15 0 -23 -5z"/>
<path d="M5980 3805 c0 -2 5 -16 12 -30 8 -17 17 -24 29 -20 9 3 20 1 24 -5
10 -17 25 -11 25 9 0 28 -27 51 -61 51 -16 0 -29 -2 -29 -5z"/>
<path d="M6153 3784 c-3 -8 -1 -25 5 -37 6 -12 18 -38 26 -57 8 -19 28 -51 45
-70 l30 -35 1 29 c0 15 -7 55 -16 88 -8 33 -13 67 -10 74 3 7 1 16 -4 19 -4 3
-10 0 -12 -7 -4 -10 -10 -10 -32 0 -22 10 -28 9 -33 -4z"/>
<path d="M5850 3640 c0 -52 4 -79 10 -75 6 3 10 37 10 75 0 38 -4 72 -10 75
-6 4 -10 -23 -10 -75z"/>
<path d="M6105 3628 c-7 -45 -45 -383 -45 -408 0 -31 17 -24 29 13 26 82 52
409 33 421 -7 4 -13 -6 -17 -26z"/>
<path d="M5784 3573 c-3 -15 -8 -35 -11 -43 -3 -8 -9 -33 -14 -55 -4 -22 -15
-69 -24 -105 -20 -89 -31 -240 -17 -240 6 0 14 17 18 38 3 20 19 105 34 187
41 220 43 232 31 239 -6 4 -13 -5 -17 -21z"/>
<path d="M4420 2700 c-8 -6 -63 -33 -121 -62 -210 -105 -323 -167 -315 -175 2
-3 26 6 53 18 26 13 59 28 73 33 51 22 340 178 345 187 8 12 -15 11 -35 -1z"/>
<path d="M3690 1861 c-119 -43 -168 -71 -127 -71 19 -1 187 73 187 82 0 10 -4
9 -60 -11z"/>
<path d="M1970 1714 c-25 -7 -137 -27 -250 -44 -270 -39 -271 -39 -265 -51 4
-5 26 -9 51 -9 51 0 459 66 489 80 11 4 38 11 59 14 22 3 44 10 50 16 15 15
-80 12 -134 -6z"/>
<path d="M1287 1594 c-16 -9 -27 -17 -25 -19 4 -4 109 16 133 25 14 6 6 9 -30
9 -27 0 -63 -7 -78 -15z"/>
</g>
</svg>
