<?xml version="1.0" standalone="no"?>
<!DOCTYPE svg PUBLIC "-//W3C//DTD SVG 20010904//EN"
 "http://www.w3.org/TR/2001/REC-SVG-20010904/DTD/svg10.dtd">
<svg version="1.0" xmlns="http://www.w3.org/2000/svg"
 width="1280.000000pt" height="1152.000000pt" viewBox="0 0 1280.000000 1152.000000"
 preserveAspectRatio="xMidYMid meet">
<metadata>
Created by potrace 1.15, written by Peter Selinger 2001-2017
</metadata>
<g transform="translate(0.000000,1152.000000) scale(0.100000,-0.100000)"
fill="#ffffff" stroke="none">
<path d="M7810 9440 c-187 -93 -276 -147 -604 -363 l-190 -125 -95 48 c-267
133 -813 346 -1054 410 -341 90 -545 99 -694 30 -70 -32 -142 -101 -174 -167
-74 -153 51 -414 343 -718 173 -180 315 -299 563 -469 72 -50 182 -127 242
-171 103 -74 112 -83 123 -125 6 -25 35 -95 65 -157 54 -111 54 -112 54 -209
0 -117 -9 -134 -75 -134 -38 0 -45 4 -59 30 -18 35 -35 39 -35 8 0 -33 36 -86
66 -100 25 -12 31 -10 95 16 12 5 18 0 23 -18 9 -38 52 -82 95 -99 52 -21 88
-85 92 -164 4 -92 0 -153 -11 -153 -6 0 -27 -7 -48 -17 -20 -9 -42 -15 -48
-14 -6 1 -17 -6 -24 -14 -7 -8 -18 -15 -25 -15 -24 0 -85 -93 -85 -131 0 -11
-5 -29 -11 -41 -16 -29 -7 -31 45 -8 55 23 56 23 56 11 0 -8 -72 -62 -128 -96
-9 -5 -41 -32 -71 -59 -30 -26 -76 -58 -101 -69 -25 -12 -47 -23 -49 -24 -2
-2 -3 -30 -2 -63 1 -38 -2 -60 -9 -60 -6 0 -18 -16 -26 -36 -12 -29 -13 -49
-5 -108 15 -108 7 -129 -76 -195 -29 -22 -57 -50 -64 -62 -15 -29 -1 -82 66
-237 l54 -127 -23 -40 c-84 -143 -158 -206 -379 -326 -123 -66 -136 -78 -143
-120 -5 -32 -2 -42 30 -76 l36 -40 -23 -20 c-38 -35 -307 -213 -322 -213 -7 0
-78 17 -157 39 -104 28 -173 40 -253 45 -60 4 -126 9 -145 12 -34 4 -37 2 -73
-55 -63 -98 -61 -171 4 -171 15 0 30 -3 33 -8 2 -4 -21 -36 -52 -72 -83 -98
-112 -147 -112 -195 0 -23 7 -50 15 -61 24 -32 18 -39 -51 -57 -117 -30 -128
-39 -154 -118 -12 -39 -29 -73 -37 -76 -13 -5 -153 24 -463 98 -69 17 -172 41
-230 55 -58 14 -168 40 -245 59 -77 19 -189 46 -250 60 -60 14 -184 44 -275
66 -190 46 -474 114 -540 128 -25 6 -119 28 -210 50 -91 22 -223 54 -295 71
-71 17 -175 42 -230 56 -55 14 -190 48 -300 75 -384 95 -437 111 -578 176
-209 96 -306 125 -347 103 -12 -6 -31 -33 -43 -58 -29 -62 -31 -229 -4 -279
22 -40 21 -40 92 -48 33 -4 63 -9 66 -11 3 -1 32 -6 65 -9 32 -4 61 -8 64 -10
3 -2 30 -6 60 -10 30 -3 62 -8 70 -10 8 -2 40 -7 70 -10 30 -3 62 -8 70 -10 8
-2 37 -7 64 -10 43 -4 107 -15 251 -40 17 -3 38 -8 47 -11 10 -3 30 -7 45 -10
16 -3 42 -9 58 -14 25 -7 98 -21 115 -22 3 0 15 -4 26 -9 12 -4 40 -10 62 -14
44 -6 126 -23 241 -50 50 -12 69 -20 60 -26 -11 -7 -10 -9 4 -9 9 0 17 -5 17
-11 0 -8 14 -10 42 -6 27 4 80 -3 152 -20 61 -14 127 -29 146 -33 19 -4 98
-22 175 -40 77 -18 156 -36 175 -40 19 -4 98 -22 175 -40 77 -18 156 -36 175
-40 19 -4 98 -22 175 -40 77 -18 156 -36 175 -40 33 -7 148 -34 435 -100 72
-17 153 -35 180 -41 28 -6 66 -15 85 -19 19 -4 58 -13 85 -19 28 -6 127 -28
220 -49 l170 -38 0 -46 c1 -25 7 -53 14 -62 17 -20 55 -21 74 -2 12 12 16 12
30 -5 30 -34 87 -22 88 20 1 26 1 25 15 -6 10 -24 21 -33 38 -33 17 0 43 -21
90 -72 62 -69 65 -74 59 -113 -4 -31 -1 -46 14 -64 l20 -24 -44 -74 c-98 -166
-117 -213 -117 -283 0 -56 5 -75 41 -145 44 -86 69 -114 148 -163 95 -60 93
-57 88 -104 -6 -52 0 -59 82 -84 33 -10 87 -30 121 -45 33 -15 141 -53 240
-84 182 -57 404 -142 459 -175 17 -10 79 -32 139 -49 87 -24 118 -38 155 -69
25 -21 81 -62 124 -91 57 -39 96 -75 145 -137 37 -47 68 -80 70 -75 2 6 8 11
12 11 13 0 306 -259 425 -374 l100 -97 48 5 c26 3 59 14 74 26 14 11 32 20 40
20 15 0 13 28 -4 70 -61 147 -134 299 -174 360 -26 41 -46 76 -45 78 2 1 25
-5 51 -14 26 -8 98 -22 159 -29 128 -16 163 -22 186 -35 29 -15 316 -100 340
-100 13 0 41 18 67 44 37 38 43 48 34 64 -23 42 -271 269 -337 307 -38 22 -97
66 -131 99 l-63 59 20 34 c11 19 20 36 20 38 0 9 -115 140 -154 178 -22 20
-45 37 -51 37 -6 0 -26 -13 -45 -30 -19 -16 -39 -29 -44 -30 -4 0 -34 -16 -66
-35 -64 -39 -87 -42 -131 -19 -41 21 -67 25 -87 15 -9 -5 -44 -14 -77 -20 -33
-6 -69 -14 -80 -17 -21 -5 -35 5 -326 227 -41 31 -89 64 -106 73 -21 10 -35
27 -39 44 -3 15 -44 101 -90 191 -46 89 -84 165 -84 166 0 2 24 17 53 34 47
27 58 29 114 24 79 -7 95 4 87 58 l-7 39 38 0 c31 0 36 -3 30 -17 -21 -52 -20
-56 19 -51 l37 4 -6 -36 c-9 -52 8 -86 54 -110 67 -34 91 -24 122 47 l13 31
18 -29 c21 -35 34 -36 65 -7 l23 22 16 -22 c19 -28 49 -28 68 0 l16 22 0 -25
c0 -36 28 -71 53 -67 26 4 56 59 57 106 0 17 5 32 10 32 6 0 10 -4 10 -9 0 -5
20 -31 45 -59 50 -56 109 -82 181 -82 55 0 67 20 58 92 -5 44 -4 51 7 41 18
-17 49 -16 49 1 0 12 6 12 40 -1 39 -16 42 -15 70 6 23 16 30 18 30 7 0 -17
27 -46 42 -46 5 0 23 14 38 30 l28 30 7 -40 c9 -52 31 -64 107 -56 79 8 102
21 94 52 -6 24 -5 25 31 18 21 -3 56 -10 78 -15 22 -6 51 -11 65 -13 30 -4 72
-11 200 -36 52 -10 127 -24 165 -30 88 -15 180 -41 320 -92 61 -21 136 -48
168 -60 63 -23 65 -28 15 -34 -133 -14 -226 -26 -245 -30 -24 -5 -29 -26 -16
-73 6 -22 8 -23 67 -16 34 4 72 9 86 12 93 15 146 15 159 -1 17 -20 84 -21
101 -1 19 23 49 18 60 -10 8 -20 16 -25 44 -25 19 0 46 -4 60 -10 19 -7 29 -5
42 7 14 14 19 15 38 3 17 -11 266 -199 499 -377 47 -37 216 -123 240 -123 8 0
17 -3 19 -7 2 -5 107 -49 233 -100 127 -51 291 -117 365 -148 228 -95 284
-111 495 -144 115 -19 257 -70 534 -195 69 -31 130 -56 137 -56 7 0 18 8 23
18 9 17 -10 28 -175 107 -102 49 -187 93 -190 97 -5 8 87 3 206 -12 41 -5 118
-14 170 -20 200 -23 361 -64 608 -156 67 -25 69 -25 74 30 3 32 -9 39 -177
102 -50 18 -50 18 -20 25 17 4 71 7 121 8 86 1 98 -2 188 -39 53 -22 98 -40
101 -40 3 0 5 24 5 53 l0 53 -217 87 c-226 90 -358 135 -456 158 -31 8 -57 17
-57 22 0 5 98 7 218 5 l217 -3 118 -49 c65 -27 119 -47 121 -45 2 2 7 18 10
34 l7 31 -188 89 c-103 49 -192 93 -198 98 -6 7 -3 7 10 2 11 -4 54 -20 95
-35 41 -15 132 -51 203 -79 70 -28 130 -51 133 -51 3 0 4 16 2 36 l-3 36 -249
114 c-136 63 -319 140 -405 170 -176 63 -205 79 -121 71 257 -27 433 -61 525
-102 28 -12 101 -52 163 -89 62 -36 115 -66 116 -66 4 0 36 76 36 84 0 7 -218
136 -261 155 -45 19 -57 22 -284 67 -108 21 -170 42 -385 128 -392 159 -510
209 -510 216 0 10 88 30 135 30 48 0 74 -11 285 -122 69 -36 152 -77 185 -91
117 -49 276 -109 279 -106 2 2 7 23 11 46 6 40 5 42 -22 48 -140 32 -223 68
-382 166 -91 56 -183 109 -205 119 -43 18 -152 24 -616 36 -192 5 -255 10
-430 40 -177 29 -244 35 -500 45 -228 8 -326 8 -431 -1 -158 -15 -217 -9 -258
26 -32 27 -52 30 -80 12 -29 -18 -114 1 -121 27 -3 11 -18 37 -34 58 -34 44
-76 50 -113 15 l-23 -22 -72 35 c-39 19 -106 57 -149 85 l-78 51 -27 -28 c-25
-26 -26 -31 -14 -54 17 -31 8 -40 -34 -37 -26 3 -38 -2 -50 -20 -24 -33 -20
-45 19 -58 19 -6 35 -15 35 -19 0 -4 -124 18 -276 48 -213 43 -278 60 -285 74
-12 20 -6 22 20 5 26 -16 51 -3 51 26 0 25 4 27 63 40 22 5 27 3 27 -12 0 -32
37 -63 68 -56 71 17 110 62 80 92 -9 9 -6 12 14 12 24 0 60 32 70 62 3 8 19 5
51 -7 61 -23 80 -10 75 52 -3 45 -3 45 49 26 21 -8 53 35 53 72 0 33 2 35 35
35 44 0 55 21 32 60 l-17 28 86 73 c97 82 176 174 172 198 -6 32 -56 42 -255
52 -210 10 -209 10 -413 71 -245 73 -454 148 -480 172 -14 13 -117 108 -230
210 -165 150 -204 191 -202 209 2 13 -8 59 -21 103 -23 74 -38 131 -52 196
-11 53 -8 160 5 168 7 4 36 11 64 14 72 10 191 41 335 88 91 30 126 37 134 29
9 -9 8 -17 -1 -31 -6 -11 -12 -26 -12 -33 0 -23 37 -50 60 -44 11 3 22 1 25
-4 3 -5 23 -13 44 -19 28 -7 48 -23 77 -62 37 -48 52 -58 114 -72 20 -4 25
-12 27 -37 3 -43 41 -95 129 -179 69 -65 77 -70 118 -70 l44 0 23 -56 c20 -52
27 -59 76 -80 29 -13 67 -25 85 -26 27 -2 52 -23 143 -114 66 -66 121 -114
137 -118 42 -10 111 28 162 88 55 65 106 166 144 287 28 88 35 115 61 231 6
26 11 80 11 121 0 41 3 128 7 195 l6 121 37 -41 c22 -25 41 -39 48 -34 22 14
12 34 -38 76 l-50 42 0 89 c0 81 2 89 19 89 11 0 29 -12 40 -27 12 -16 25 -33
31 -40 12 -14 117 -49 125 -41 14 13 -11 38 -52 52 -24 8 -60 29 -79 46 -19
16 -46 33 -59 36 -16 4 -25 13 -25 25 0 16 8 19 55 19 68 0 103 17 175 85 30
29 71 66 90 81 19 16 37 31 40 34 3 3 25 21 50 40 128 99 185 176 157 214 -11
14 -22 9 -92 -40 -117 -82 -127 -84 -60 -13 160 171 186 207 171 244 -7 18
-40 20 -58 2 -7 -7 -33 -28 -58 -47 -25 -19 -47 -37 -50 -40 -18 -19 -102 -82
-105 -78 -2 2 10 19 28 38 18 19 57 64 87 100 30 36 63 74 73 85 35 39 30 95
-10 95 -7 0 -67 -49 -133 -110 -65 -60 -121 -110 -124 -110 -4 0 2 12 12 28
48 69 113 174 122 196 12 34 -9 61 -41 53 -13 -3 -62 -48 -109 -99 -177 -194
-241 -250 -278 -246 -33 4 -33 19 -3 101 24 65 18 112 -20 161 -38 48 -52 36
-88 -76 -40 -121 -96 -247 -119 -266 -13 -11 -14 -13 -2 -9 12 3 15 -12 17
-91 2 -63 8 -103 17 -118 14 -20 13 -24 -4 -39 -10 -9 -24 -14 -29 -10 -6 3
-11 1 -11 -4 0 -6 7 -11 15 -11 22 0 19 -8 -17 -38 -18 -15 -62 -53 -97 -85
-37 -32 -72 -55 -79 -52 -8 3 -21 -3 -30 -13 -10 -10 -54 -51 -99 -91 l-82
-72 -52 26 c-59 31 -126 35 -161 11 -12 -9 -33 -16 -45 -16 -21 0 -23 3 -16
28 3 15 6 35 5 45 0 9 3 17 7 17 4 0 27 13 49 30 l41 30 -21 36 c-12 21 -39
55 -60 77 -35 37 -88 131 -88 156 0 6 7 11 15 11 26 0 145 61 145 74 0 7 -42
41 -92 74 -166 110 -167 111 -169 278 -1 135 11 163 114 271 122 129 142 184
92 258 -15 20 -25 39 -23 40 2 2 37 -8 78 -21 211 -70 463 -116 643 -118 64 0
117 -4 117 -8 0 -4 12 0 28 8 15 7 36 14 48 14 24 0 137 36 174 55 39 20 79
68 90 106 15 51 12 92 -11 164 -18 55 -44 92 -161 238 -77 94 -203 253 -281
352 -78 99 -171 209 -207 246 -73 73 -254 205 -536 389 l-192 125 -6 75 c-6
68 -3 88 34 220 59 209 120 403 131 415 5 5 9 16 9 25 0 10 20 22 58 35 42 15
57 25 56 38 -2 16 3 17 30 10 17 -4 60 -8 96 -8 53 0 77 6 130 32 72 35 116
71 103 83 -4 5 -45 13 -91 18 -74 9 -100 19 -278 106 -108 53 -207 96 -219 96
-13 0 -105 -41 -205 -90z m-1365 -1760 c-2 -14 -4 -31 -4 -37 -2 -28 -17 -10
-36 40 -11 28 -21 56 -23 60 -3 5 12 -2 31 -14 27 -18 34 -29 32 -49z m34
-470 c27 -36 48 -67 46 -69 -2 -2 -19 5 -37 16 -32 19 -60 57 -73 102 -12 39
11 21 64 -49z"/>
<path d="M2207 7319 c7 -7 15 -10 18 -7 3 3 -2 9 -12 12 -14 6 -15 5 -6 -5z"/>
<path d="M1630 6282 c0 -35 2 -37 32 -37 17 0 33 6 36 13 5 16 -23 48 -49 55
-16 4 -19 0 -19 -31z"/>
</g>
</svg>
